<svg width="2020" height="1130" xmlns:xlink="http://www.w3.org/1999/xlink" xmlns="http://www.w3.org/2000/svg"><defs><radialGradient xlink:href="#prefix__a" id="prefix__f" cx="1221.201" cy="687.813" fx="1221.201" fy="687.813" r="20.167" gradientUnits="userSpaceOnUse" gradientTransform="translate(0 38)"/><radialGradient xlink:href="#prefix__b" id="prefix__j" cx="1463.887" cy="315.042" fx="1463.887" fy="315.042" r="247.581" gradientTransform="matrix(.99921 -.03974 .11835 2.97591 -36.128 -564.322)" gradientUnits="userSpaceOnUse"/><radialGradient xlink:href="#prefix__c" id="prefix__g" cx="2502.961" cy="213.078" fx="2502.961" fy="213.078" r="498.237" gradientTransform="matrix(-.68593 .4842 -.46186 -.65427 3451.17 -656.63)" gradientUnits="userSpaceOnUse"/><radialGradient xlink:href="#prefix__c" id="prefix__h" cx="2275.651" cy="805.888" fx="2275.651" fy="805.888" r="465.523" gradientTransform="matrix(-.83792 -.10777 .05735 -.44593 3541.56 1384.016)" gradientUnits="userSpaceOnUse"/><radialGradient xlink:href="#prefix__d" id="prefix__n" cx="2136.49" cy="180.147" fx="2136.49" fy="180.147" r="253.438" gradientTransform="matrix(-.69999 .40737 -.34077 -.58558 3400.734 -498.744)" gradientUnits="userSpaceOnUse"/><radialGradient xlink:href="#prefix__e" id="prefix__l" cx="2026.618" cy="512.104" fx="2026.618" fy="512.104" r="355.531" gradientTransform="matrix(-1.27963 .12635 -.01984 -.20087 4360.558 468.785)" gradientUnits="userSpaceOnUse"/><radialGradient xlink:href="#prefix__e" id="prefix__m" cx="2074.517" cy="924.573" fx="2074.517" fy="924.573" r="298.207" gradientTransform="matrix(-.55589 -.01463 .00644 -.2447 2959.088 1123.241)" gradientUnits="userSpaceOnUse"/><radialGradient xlink:href="#prefix__e" id="prefix__k" cx="1516.652" cy="980.777" fx="1516.652" fy="980.777" r="402.577" gradientTransform="matrix(-.64433 -.3711 .36497 -.63369 2134.448 2183.25)" gradientUnits="userSpaceOnUse"/><linearGradient id="prefix__d"><stop offset="0" stop-color="#00897b"/><stop offset="1" stop-color="#00897b" stop-opacity="0"/></linearGradient><linearGradient id="prefix__b"><stop offset="0" stop-color="#00897b"/><stop offset="1" stop-color="#00897b" stop-opacity="0"/></linearGradient><linearGradient id="prefix__a"><stop offset="0" stop-color="#00897b"/><stop offset="1" stop-color="#00897b" stop-opacity="0"/></linearGradient><linearGradient id="prefix__e"><stop offset="0" stop-color="#00897b"/><stop offset="1" stop-color="#00897b" stop-opacity="0"/></linearGradient><linearGradient id="prefix__c"><stop offset="0" stop-color="#dff0ee"/><stop offset="1" stop-color="#dff0ee" stop-opacity="0"/></linearGradient><filter id="prefix__i" x="0" y="0" width="1" height="1.001" color-interpolation-filters="sRGB"><feGaussianBlur stdDeviation=".05"/></filter></defs><path d="M1129 759.282s17.278-16.611 20.042 1.044c.504 3.21.52 7.683 5.462 6.962 0 0 .281-19.275-6.916-19.172-7.198.104-5.383-2.93-5.383-2.93-1.8 1.045 10.492 1.938 15.632 7.262 5.132 5.316 9.011 5.148 10.33 2.135l-10.575-8.802c-1.073-.929.904-.149 7.603 3.276 0 0 4.995 4.245 9.39-1.167.406-.5-13.795-7.289-13.738-7.757l-20.689 2.511z" stroke="#000"/><path d="M894.548 1046.042l91.586-82.978c-10.89-19.606-16.404-55.231-13.28-78.488l68.027-26.124 80.25-94.241 12.309.938 15.783-3.058s11.506 1.492 8.826-2.937c-2.68-4.429-18.856-4.764-18.856-4.764l11.513-7.94 20.288-6.464c.16 1.149 9.002-7.04 3.296-6.102l-40.127 6.587s-14.237 6.984-22.565 11.673c-28.274 16.558-46.053 49.23-78.08 69.47l-86.955 7.678c-8.777.775-13.856 2.815-13.572-5.679l.611-18.302c-14.934.93-29.646-.656-43.617-10.558-1.674 42.493-12.364 23.305-52.408 24.693-27.572.955-29.893 37.577-38.111 70.2-8.219 32.625-14.43 106.307-24.597 168.14-.365 3.658-37.072 11.135-34.705 16.702l50.042.023c4.708-19.461 34.935-149.124 54.594-184.408m30.069-66.465l10.232 14.532c16.342 23.21 48.71 34.164 56.01 11.192 1.836-5.774-6.907-20.805-6.907-20.805" fill="#fff" stroke="#000" stroke-width="2" stroke-linecap="round"/><path d="M887.374 735.415h65.072v52.712c-.29 22.606-48.664 41.286-71.227 1.023z" fill="#fff" paint-order="stroke fill markers"/><path d="M1092.892 1008.495l.408 14.274-29.77 3.466-2.447-25.693zM1052.586 992.41l-19.712-11.78-66.635 83.203 3.863 3.22s23.461 7.18 34.064-1.997c7.574-6.554 27.972-37.967 39.012-55.385 4.416-6.968 14.715-19.441 9.408-17.26z" stroke="#000" stroke-width="2" stroke-linecap="round"/><path d="M1039.723 988.436s-42.572 76.535-80.697 84.524c-22.796 4.776-51.774-7.21-64.478-26.918l113.373-103.2s15.445-21.531 43.228-7.34l128.305 82.817-19.394 25.12z" fill="#fff" stroke="#000" stroke-width="2" stroke-linecap="round"/><path d="M920.868 1023.919l-1.02 34.664" fill="none" stroke="#000" stroke-width="2" stroke-linecap="round"/><path d="M1246.015 1030.083l-52.725 41.68s-6.758 6.24-11.943 1.458l-18.643-17.197s-1.812-5.685 6.7-5.83c10.131-.171 22.145-3.767 25.925-12.606 1.755-4.103-1.76-8.232-4.078-12.752-1.323-2.58 1.137-8.142 4.006-7.724 10.09 1.471 21.53 4.263 29.053.048 11.088-6.212 29.561-.655 21.705 12.922z" fill="#fff" stroke="#000" stroke-width="2"/><path d="M1180.764 1072.93c22.577-18.778 42.332-33.35 65.615-53.117 1.34 2.646 2.683 3.812-1.008 10.167l-52.08 41.784c-5.664 4.11-9.606 3.915-12.527 1.165z" stroke="#000" stroke-width=".816"/><path d="M1223.148 1011.865l2.622 14.866M1215.574 1013.614l2.622 14.866M1209.312 1014.197l2.621 14.866" fill="none" stroke="#000" stroke-width=".816"/><path d="M1139.197 1067.035l-61.3.446s-8.362.67-9.385-5.36l-3.68-21.687s1.905-4.853 8.09-.421c7.363 5.275 18.005 9.21 25.697 5.177 3.57-1.873 3.377-6.568 4.261-10.894.505-2.47 5.404-4.964 7.225-3.151 6.407 6.377 13.039 14.376 20.808 15.498 11.453 1.652 21.57 15.287 8.284 20.392z" fill="#fff" stroke="#000" stroke-width="2"/><path d="M1068.258 1061.61c27.115-.397 48.65-.258 76.987-1.406-.53 2.523-.223 4.035-6.452 6.418l-60.895.859c-6.378-.203-9.095-2.435-9.64-5.87z" stroke="#000" stroke-width=".898"/><path d="M1131.78 1042.516l-6.005 11.47M1126.003 1039.59l-6.004 11.47M1121.673 1036.586l-6.004 11.47" fill="none" stroke="#000" stroke-width=".855"/><path d="M974.486 865.816c-5.685 33.418-.94 77.713 11.648 97.248l-91.586 82.978c-33.467-29.803-51.34-93.492-56.853-141.121l7.105-14.818" fill="#fff" stroke="#000" stroke-width="2"/><path d="M837.695 904.92c5.513 47.63 23.386 111.319 56.853 141.122M828.479 934.016l-35.069-14.09" fill="none" stroke="#000" stroke-width="2"/><path d="M881.219 789.15s-13.741-8.237-11.051-20.083c1.364-6.012-3.63-8.739-3.235-14.684.464-6.958 6.99-11.428 7.637-15.614.703-4.547.085-12.382 5.621-15.388 9.88-5.363 14.867-.367 22.818-8.197 7.782-7.663 18.493 4.71 27.64-1.704 7.495-5.254 43.725-7.475 21.797 33.568-16.955-13.231-34.414 3.19-55.079 1.442-7.941-.664-7.886.288-8.362 7.497-.476 7.21.27 19.248.27 19.248.647 6.902-8.34 10.342-8.056 13.915" stroke="#000"/><path d="M952.878 785.833l-.432-38.785M915.788 757.233c-1.46-.506-4.801.066-5.554.893M948.204 758.65c-1.099-1.2-3.56-1.051-4.672-.274M933.414 766.801s3.316 10.67 1.441 13.265c-1.874 2.595-6.055 1.875-6.055 1.875" fill="none" stroke="#000" stroke-width="2" stroke-linecap="round"/><ellipse cx="-943.146" cy="768.009" rx="1.009" ry=".991" transform="scale(-1 1)" paint-order="stroke fill markers"/><ellipse cx="-915.227" cy="767.833" rx="1.235" ry="1.212" transform="scale(-1 1)" paint-order="stroke fill markers"/><path d="M757.423 1074.309s-2.855-5.71 15.7-7.341" fill="none" stroke="#000" stroke-width="2" stroke-linecap="round"/><circle cx="1221.201" cy="725.813" r="19.167" fill="url(#prefix__f)" paint-order="stroke fill markers"/><path d="M996.897 824.55l1.492 49.846" fill="none" stroke="#000" stroke-width="2"/><path d="M2147.343 339.2c-47.464 19.48-76.263-11.034-151.133 28.4-64.06 33.74-38.548 67.417-113.047 107.9-49.534 26.926-103.477 2.676-153.656 28.41-61.063 30.032-67.941 87.014-119.04 112.565-46.113 23.056-111.433 5.144-157.778 27.739-72.874 28.316-41.83 63.364-123.73 111.53l-101.166-87.213c64.556-68.882 24.179-93.426 85.959-140.898 37.921-34.55 106.217-35.961 143.777-70.883 41.62-38.7 31.244-94.788 81.13-140.558 40.679-38.614 99.902-30.792 139.604-70.356 59.715-59.493 25.078-84.296 76.745-134.435 60.386-58.6 97.248-37.731 137.176-69.636 52.882-42.256 54.553-84.057 54.553-84.057l277.53 315.878s-14.063 39.813-76.924 65.613z" fill="url(#prefix__g)"/><path d="M2009.629 1051.814c-43.598-17.274-42.519-55.921-116.954-77.378-63.688-18.358-68.967 20.3-143.843-.222-49.79-13.64-69.168-64.136-118.603-78.98-59.324-18.915-100.867 14.615-150.783-.937-45.044-14.034-75.958-67.56-120.853-82.05-65.904-27.581-68.47 15.512-153.166-4.613l-9.197-122.469c86.867-4.706 76.52-46.757 147.653-38.987 47.182 1.17 92.603 43.736 139.791 44.427 52.291.765 82.01-43.162 144.286-41.837 51.622.223 85.126 43.153 136.73 42.12 77.606-1.543 71.167-40.109 137.446-40.555 77.463-.522 87.91 36.844 134.679 41.051 61.942 5.573 90.22-21.174 90.22-21.174l-24.605 386.951s-35.059 17.531-92.801-5.347z" fill="url(#prefix__h)" filter="url(#prefix__i)"/><path style="mix-blend-mode:normal" d="M1690.488-121.631c-39.055 83.22 6.012 95.428-36.994 157.541-24.746 43.267-87.874 63.407-112.17 106.928-26.922 48.228-.147 98.668-32.603 155.89-26.072 47.887-83.575 56.757-108.448 105.278-37.415 72.967 2.39 87-30.392 148.864-38.312 72.303-78.986 62.62-106.407 103.927-36.317 54.707-25.114 94.886-25.114 94.886" fill="none" stroke="url(#prefix__j)" stroke-width="10" stroke-linecap="round" stroke-opacity=".993"/><path d="M2029.115 1305.073c-78.422-47.968-95.51-4.516-152.52-54.09-40.283-29.354-53.36-94.313-93.946-123.246-44.976-32.063-98.053-10.996-151.36-49.546-44.73-31.18-47.224-89.309-92.716-119.366-68.41-45.21-86.736-7.19-144.62-46.575-67.652-46.03-53.556-85.392-91.597-117.188-50.382-42.112-91.55-35.395-91.55-35.395" fill="none" stroke="url(#prefix__k)" stroke-width="10" stroke-linecap="round"/><path d="M2012.123 554.16c-64.528 15.948-49.21 44.193-104.133 49.03-35.716 6.026-77.522-17.49-113.157-11.124-39.488 7.055-53.986 42.449-101.089 50.558-38.888 7.341-71.79-18.163-110.439-9.936-58.126 12.365-46.373 38.713-96.171 48.657-58.201 11.622-72.755-13.295-108.705-9.478-47.612 5.056-64.102 28.086-64.102 28.086" fill="none" stroke="url(#prefix__l)" stroke-width="10.684" stroke-linecap="round"/><path d="M2272.8 941.876c-55.208-8.87-54.83 21-98.348 5.875-29.445-7.337-51.763-42.424-81.281-49.438-32.71-7.774-57.754 17.806-96.65 8.27-32.369-7.314-47.154-40.993-79.694-47.455-48.936-9.725-50.504 17.247-92.17 8.352-48.697-10.396-49.82-37.112-78.563-46.447-38.069-12.363-59.708 1.8-59.708 1.8" fill="none" stroke="url(#prefix__m)" stroke-width="10" stroke-linecap="round"/><path d="M2159.758 54.712c-45.117 33.032-23.606 53.76-64.953 74.082-25.916 15.785-66.56 6.996-92.298 23.06-28.522 17.802-27.931 53.595-62.056 74.557-27.955 17.882-62.302 4.725-89.772 23.327-41.315 27.97-23.233 48.045-58.848 71.428-41.624 27.33-61.415 9.348-88.26 23.23-35.552 18.387-40.69 43.734-40.69 43.734" fill="none" stroke="url(#prefix__n)" stroke-width="10" stroke-linecap="round"/><g transform="matrix(1.80348 0 0 1.81226 -885.423 -3167.597)" stroke-width="1.106"><path d="M1336.122 1991.586c20.667.828 39.536 8.555 43.84 11.215 12.136 7.498 4.079 41.19 4.079 41.19-6.147 3.84-15.714.224-18.352-4.895-2.637-5.118-5.71-14.477-5.71-14.477l-20.798-4.69s-9.167 10.626-12.016 11.279c-2.849.653-13.308 2.537-16.939-5.978 5.863-10.718 15.012-34.08 25.896-33.644zM1334.565 2002.259l-4.068 9.942M1327.523 2005.845c.816 0 10.4 2.855 10.4 2.855" fill="none" stroke="#000"/><circle cx="1372.58" cy="2012.402" r="1.937" paint-order="stroke fill markers"/><circle cx="1369.971" cy="2021.476" r="1.937" paint-order="stroke fill markers"/><circle cx="1376.198" cy="2018.646" r="1.937" paint-order="stroke fill markers"/><circle cx="1366.684" cy="2015.682" r="1.937" paint-order="stroke fill markers"/><path d="M1345.822 2012.965l3.028.866M1352.238 2014.551l3.028.866" fill="none" stroke="#000"/></g><g transform="rotate(-102.02 1257.08 978.92)" stroke-width="2" fill="none" stroke="#000"><path d="M1111.747 1536.933l15.48-54.617c3.774 3.056 7.55 6.11 14.045 4.42l-15.524 53.404zM1111.747 1536.933l14 3.207c-.786 8.41 3.542 17.879-4.177 30.905 0 0-23.423-4.834-23.43-5.371-.138-11.758 10.578-23.205 13.607-28.74z"/><path d="M1121.26 1502.74c-47.329-18.018-2.358-40.358-8.185-59.565-5.826-19.208-2.586-43.342 25.046-45.605 13.717-1.123 26.519 1.102 45.102 14.674 18.584 13.572 9.979 31.97 5.127 37.18-4.85 5.212-23.192 16.212-19.864 32.034 4.8 22.875-16.259 31.691-32.933 26.043"/><ellipse cx="1139.082" cy="1471.972" rx="15.29" ry="14.955" stroke-linecap="round" stroke-linejoin="round" paint-order="stroke fill markers"/></g><path d="M1816.711 400.53c9.112-142.197 136.233 154.294 25.09 56.956M1779.646 414.805l36.892-15.224c7.647-3.155 7.528-2.828 10.943 4.608l19.827 43.174c1.326 2.887 2.164 7.01-4.528 9.574l-37.633 14.419c-7.162 2.744-10.337.444-12.669-5.943-5.342-14.634-18.028-39.436-18.633-42.888-.664-3.79 2.422-6.325 5.8-7.72z" fill="none" stroke="#000" stroke-width="2"/><path d="M1798.952 440.182l11.247-3.807-6.154-18.608" fill="none" stroke="#000" stroke-width="2"/><path d="M1829.298 361.728l-29.285 8.036c-19.337 5.306-16.34 42.504-16.34 42.504" fill="none" stroke="#000" stroke-width="2" stroke-linecap="round"/><path d="M1807.016 471.267c9.432 10.06 18.676 20.375 34.165 22.204l36.076-15.225" fill="none" stroke="#000" stroke-width="2"/><g transform="translate(-341.72 -190.298)" stroke-width="2" fill="none" stroke="#000"><ellipse cx="1821.39" cy="974.83" rx="65.321" ry="62.778" stroke-linecap="round" stroke-linejoin="round" paint-order="stroke fill markers"/><ellipse cx="1820.551" cy="934.868" rx="8.346" ry="8.015" stroke-linecap="round" stroke-linejoin="round" paint-order="stroke fill markers"/><path d="M1808.817 965.798l-24.848-8.78c-4.382-1.599-1.876-10.898 3.012-9.533l22.087 7.777h21.585l24.096-7.777c4.426-1.691 8.02 6.237 2.76 8.53l-24.597 9.282-.502 19.066 7.028 31.107c1.32 6.081-6.708 7.87-8.283 3.01l-10.04-32.11-10.04 31.107c-2.234 6.106-10.729 3.498-9.537-1.003l7.53-30.105z"/></g><path d="M1730.277 269.94l-36.733.108c-3.709-.258-4.684-3.216-5.083-4.089-.399-.872-2.596-15.064-2.596-15.064-2.458-6.912-12.043-6.37-13.626.107l-2.38 13.236c-.199 3.192-2.307 5.479-8.544 5.81 0 0-20.253.963-28.227-.215-5.461-.806-12.39-5.27-12.545-10.76l-1.298-45.625c6.205-8.496 13.558-16.307 24.073-20.515l105.47 1.1.22 52.972c.02 4.93.35 6.538-1.544 9.917-2.808 5.008-10.502 11.575-17.187 13.019" fill="none" stroke="#000" stroke-width="2"/><path d="M1619.245 213.448l116.865.493.611 43.827c.108 7.718-4.192 11.992-6.444 12.173M1736.11 213.941c3.37-6.14 5.983-11.863 12.847-19.935M1643.318 192.933c31.211-42.734 150.894-38.147 105.47 1.1M1672.002 192.902c44.248-29.51 89.968-12.992 83.841-6.216" fill="none" stroke="#000" stroke-width="2"/><path d="M1748.957 218.502c12.51-13.763 12.898-11.74 13.28-22.665.225-6.485-1.152-16.347-3.824-20.575" fill="none" stroke="#000" stroke-width="2"/><path d="M933.906 792.323c-2.634 3.63-10.03 4.636-11.907-.847" fill="none" stroke="#000" stroke-width="2" stroke-linecap="round"/><path d="M1344.914 1076.48H.738" fill="none" stroke="#343434" stroke-width="2"/><path d="M952.878 785.833c-6.406 46.375-71.832 18.85-71.66 3.317" fill="none" stroke="#000" stroke-width="2" stroke-linecap="round"/><path d="M1212.685 1014.37l-4.125 14.52M1218.205 1013.655l-4.125 14.52M1225.779 1011.906l-4.125 14.52" fill="none" stroke="#000" stroke-width=".816"/><path d="M1124.017 1038.67l-10.692 7.301M1128.729 1041.431l-10.692 7.3M1134.254 1044.439l-10.691 7.3" fill="none" stroke="#000" stroke-width=".855"/><ellipse cx="-943.146" cy="768.009" rx="1.235" ry="1.212" transform="scale(-1 1)" paint-order="stroke fill markers"/></svg>