<svg width="44" height="44" viewBox="0 0 11.642 11.642" xmlns="http://www.w3.org/2000/svg"><g transform="translate(.189 .678)"><ellipse cx="6.606" cy="4.945" transform="rotate(11.95)" rx="1.615" ry="1.616" fill="#00897b"/><path d="M3.899 9.99C-.464 11.056-.217 8.459 1.014 5.608c.11-.209.384-.223.546-.08a.327.327 0 01.156.34c0 .01-.24 1.304-.24 1.304l3.005-1.054a.4.4 0 11.266.757l-1.766.62.048.11.009-.002a.4.4 0 11.265.757l-.009.003.022.061.018-.006a.4.4 0 11.265.756l-.018.007.023.064.029-.011a.4.4 0 01.511.246c.023.287-.107.388-.245.512zM9.574 5.832c3.209 3.643.602 4.518-2.64 4.535-.236-.005-.37-.245-.315-.454a.326.326 0 01.234-.29c.01-.006 1.275-.367 1.275-.367l-2.282-2.22a.4.4 0 11.56-.576l1.34 1.306.079-.093-.007-.007a.4.4 0 11.56-.575l.006.007.046-.046-.014-.013a.4.4 0 11.56-.575l.013.013.047-.049-.022-.022a.4.4 0 01-.008-.567c.247-.148.395-.077.568-.007zM2.946 2.835C4.34-1.843 6.416-.13 8.19 2.645c.12.202-.01.444-.216.509a.327.327 0 01-.37-.043c-.01-.005-.992-.882-.992-.882l-.658 3.115a.4.4 0 11-.785-.166l.387-1.83-.12-.018-.003.009a.4.4 0 11-.784-.166l.002-.009-.064-.013-.003.018a.4.4 0 11-.785-.166l.004-.018-.066-.014L3.73 3a.4.4 0 01-.475.31c-.257-.13-.276-.293-.31-.476z" fill="#fbffff" stroke="#343434" stroke-width=".397" stroke-linecap="round" stroke-linejoin="round"/></g></svg>