<svg width="400" height="400" viewBox="0 0 105.833 105.833" xmlns="http://www.w3.org/2000/svg"><g fill="none" stroke="#00897b" stroke-width="1.058" stroke-linecap="round" stroke-linejoin="round"><path d="M22.401 91.21l-10.86-10.782 53.404-54.395-8.564-9.412 2.27-2.445 29.594 10.642 9.563 9.77-11.394 11.755-9.544-8.934z"/><path d="M35.552 50.863l11.539-11.385-8.385-8.553c-1.707-1.406-1.309-3.05-1.215-4.66 1.412-11.009-11.547-15.696-19.88-14.41L27.788 22.32l-9.189 9.107-10.415-9.841c-1.352 10.618 6.17 20.947 14.511 19.68 3.049-.586 3.737.564 4.78 1.454zM63.6 55.122l-11.425 11.5 8.47 8.468c1.72 1.39 1.339 3.037 1.261 4.648-1.302 11.023 11.704 15.58 20.023 14.21L71.65 83.586l9.096-9.198 10.513 9.737c1.247-10.632-6.379-20.886-14.707-19.535-3.042.617-3.742-.527-4.793-1.407z"/></g></svg>