<svg version="1.2" width="200" height="200" xmlns="http://www.w3.org/2000/svg"><path fill="none" d="M178.142 96.856l-19.4-3.608c-.471-.089-.988-.533-1.147-.988l-5.947-13.877c-.222-.429-.18-1.102.094-1.5l11.303-16.48c.27-.396.217-1-.124-1.34L148.804 44.94a1.094 1.094 0 00-1.34-.124l-16.763 11.507c-.396.273-1.076.321-1.507.109l-13.448-5.507c-.457-.151-.901-.662-.991-1.136l-3.735-20.07c-.087-.474-.554-.861-1.035-.861H90.018c-.48 0-.947.387-1.034.86L85.25 49.79c-.09.474-.533.985-.991 1.136l-13.45 5.507c-.431.212-1.111.164-1.507-.11L52.54 44.818c-.397-.273-1-.217-1.34.124L37.08 59.063c-.34.34-.396.944-.124 1.34l11.304 16.48c.272.398.314 1.071.094 1.5L42.407 92.26c-.158.455-.674.9-1.148.988L21.86 96.856c-.474.09-.86.555-.86 1.037l.001 19.971c0 .482.387.95.86 1.037l18.923 3.522c.474.086.98.536 1.124.995l5.907 14.761c.212.433.162 1.111-.112 1.508l-10.748 15.667c-.271.397-.216 1.001.124 1.343l14.12 14.121c.34.339.943.394 1.34.124l15.386-10.564c.397-.271 1.061-.292 1.475-.05l6.786 3.623c.43.22.931.035 1.115-.41l13.991-33.816c.186-.445 0-1.013-.41-1.264l-1.699-1.04a8.037 8.037 0 01-1.073-.823c-6.126-3.924-10.19-10.788-10.19-18.605 0-12.198 9.886-22.087 22.08-22.087 12.194 0 22.08 9.889 22.08 22.087 0 7.817-4.063 14.681-10.19 18.605a7.948 7.948 0 01-1.072.823l-1.698 1.04c-.408.251-.595.819-.41 1.264l13.99 33.817a.798.798 0 001.114.41l6.786-3.623c.415-.242 1.079-.222 1.475.05l15.387 10.564c.397.27 1.001.215 1.34-.124l14.12-14.121c.34-.341.396-.946.123-1.342l-10.75-15.668c-.27-.397-.321-1.074-.11-1.508l5.908-14.76c.145-.46.647-.91 1.122-.996l18.923-3.522c.472-.086.86-.555.86-1.037L179 97.894c0-.483-.386-.948-.858-1.038" stroke="teal" stroke-width="2.5" stroke-linecap="round" stroke-linejoin="round" paint-order="markers stroke fill"/></svg>