<svg width="400" height="400" viewBox="0 0 105.833 105.833" xmlns="http://www.w3.org/2000/svg"><g fill="none" stroke="#00897b" stroke-linecap="round"><path d="M29.809 33.332l-3.969 6.874h-7.937l-3.97-6.874 3.97-6.874h7.937z" transform="matrix(1.32471 .76506 -.76482 1.32511 38.913 -17.094)" stroke-width=".173"/><path d="M29.82 33.326h7.937l3.969-6.874h7.937l3.969-6.874h7.938l3.968-6.874L61.57 5.83h-7.937l-3.969-6.874h-7.937l-3.97-6.874H29.82l-3.968-6.874h-7.938l-3.969 6.874 3.97 6.874m-.011.006l-3.97 6.874 3.97 6.874-3.97 6.874 3.97 6.874-3.97 6.874 3.97 6.875h7.937l3.969-6.875" transform="matrix(1.32471 .76506 -.76482 1.32511 17.883 19.341)" stroke-width="1.038"/><path d="M29.809 33.332l-3.969 6.874h-7.937l-3.97-6.874 3.97-6.874h7.937z" transform="matrix(1.32471 .76506 -.76482 1.32511 17.883 19.341)" stroke-width=".173"/><path d="M29.809 33.332l-3.969 6.874h-7.937l-3.97-6.874 3.97-6.874h7.937z" transform="matrix(1.32471 .76506 -.76482 1.32511 38.931 19.341)" stroke-width=".173"/><path d="M29.809 33.332l-3.969 6.874h-7.937l-3.97-6.874 3.97-6.874h7.937z" transform="matrix(1.32471 .76506 -.76482 1.32511 59.96 19.341)" stroke-width=".173"/><path d="M29.809 33.332l-3.969 6.874h-7.937l-3.97-6.874 3.97-6.874h7.937z" transform="matrix(1.32471 .76506 -.76482 1.32511 80.99 19.341)" stroke-width=".173"/><path d="M29.809 33.332l-3.969 6.874h-7.937l-3.97-6.874 3.97-6.874h7.937z" transform="matrix(1.32471 .76506 -.76482 1.32511 28.398 1.123)" stroke-width=".173"/><path d="M29.809 33.332l-3.969 6.874h-7.937l-3.97-6.874 3.97-6.874h7.937z" transform="matrix(1.32471 .76506 -.76482 1.32511 49.446 1.123)" stroke-width=".173"/><path d="M29.809 33.332l-3.969 6.874h-7.937l-3.97-6.874 3.97-6.874h7.937z" transform="matrix(1.32471 .76506 -.76482 1.32511 70.476 1.123)" stroke-width=".173"/><path d="M29.809 33.332l-3.969 6.874h-7.937l-3.97-6.874 3.97-6.874h7.937z" transform="matrix(1.32471 .76506 -.76482 1.32511 59.96 -17.094)" stroke-width=".173"/><path d="M29.809 33.332l-3.969 6.874h-7.937l-3.97-6.874 3.97-6.874h7.937z" transform="matrix(1.32471 .76506 -.76482 1.32511 49.446 -35.312)" stroke-width=".173"/></g></svg>