<svg width="400" height="200" viewBox="0 0 105.833 52.917" xmlns="http://www.w3.org/2000/svg" xmlns:krita="http://krita.org/namespaces/svg/krita"><defs><linearGradient id="prefix__a"><stop offset="0"/><stop offset="1" stop-opacity="0"/></linearGradient></defs><text style="-inkscape-font-specification:Roboto" x="10.723" y="63.192" font-size="22.578" font-family="Roboto" fill="#00897b" stroke-width="1.058" stroke-linecap="round" stroke-linejoin="round" paint-order="markers stroke fill"/><text style="line-height:1.25;-inkscape-font-specification:Roboto" x="47.458" y="22.574" font-weight="400" font-size="12.7" font-family="Roboto" fill="#b61e23" stroke-width=".265"><tspan style="-inkscape-font-specification:Roboto" x="47.458" y="22.574"><tspan font-style="italic">tomat</tspan> </tspan><tspan style="-inkscape-font-specification:Roboto" x="47.458" y="38.449">navigator</tspan></text><g transform="translate(1.06)"><path d="M25.74 29.639c.003-4.438-7.076-5.526-6.905 2.468.094 4.39-3.216 9.483-5.088 12.238" fill="none" stroke="#b61e23" stroke-width="1.624" stroke-linecap="round"/><ellipse cx="23.199" cy="29.615" rx="17.389" ry="17.616" fill="none" stroke="#b61e23" stroke-width="1.928" stroke-linecap="round" stroke-linejoin="round" paint-order="stroke markers fill"/><path d="M16.673 45.904c2.94-3.857 5.866-9.514 5.796-16.343M19.998 46.964c2.595-3.795 4.352-6.78 5.494-14.236" fill="none" stroke="#b61e23" stroke-width="1.624" stroke-linecap="round"/><path d="M23.73 47.16c3.03-4.137 5.207-11.402 5.198-17.634-.008-6.001-4.486-6.735-6.556-6.56-9.81.825-3.66 11.558-11.09 19.04" fill="none" stroke="#b61e23" stroke-width="1.624" stroke-linecap="round"/><path d="M28.31 46.147c4.134-8.935 4.355-12.404 4.343-17.018-.022-8.19-7.268-10-10.094-9.762-13.387 1.126-7.325 15.212-13.894 18.748" fill="none" stroke="#b61e23" stroke-width="1.624" stroke-linecap="round"/><path d="M32.616 44.275C47.071 15.312 14.13 5.965 9.635 27.737c-.372 1.801-.21 5.187-2.28 6.08" fill="none" stroke="#b61e23" stroke-width="1.624" stroke-linecap="round" stroke-linejoin="round"/><path fill="#008937" fill-rule="evenodd" krita:marker-fill-method="auto" d="M20.242 5.385c1.32-1.802 2.396.084 6.933 5.518 3.157-2.002 7.923 1.434 12.158-.539-3.16 5.722-7.025 5.937-11.14 4.193 4.204 2.064 3.856 4.523 4.612 6.887-2.027-3.709-4.664.92-7.307-4.252.06 1.006.179 2.654-7.067 5.09 1.277-2.729 1.382-5.009 4.612-7.186-3.705 1.996-7.438.818-11.2-3.534 4.181 1.42 6.172-2.173 11.44-.539-2.614-3.877-3.412-4.924-3.041-5.638z"/></g></svg>