<svg width="400" height="200" viewBox="0 0 105.833 52.917" xmlns="http://www.w3.org/2000/svg"><defs><linearGradient id="prefix__a"><stop offset="0"/><stop offset="1" stop-opacity="0"/></linearGradient></defs><g opacity=".142" fill="none" stroke="#00897b" stroke-linecap="round"><rect width="100.034" height="46.768" x="2.9" y="3.074" ry="1.143" stroke-width=".404" stroke-linejoin="round" paint-order="markers stroke fill"/><g transform="matrix(.89275 0 0 .89275 84.519 1.827)"><ellipse cx="-29.069" cy="35.141" transform="rotate(11.95)" rx="6.1" ry="6.102" stroke-width=".277"/><path d="M-41.533 42.657C-58.012 46.677-57.08 36.87-52.43 26.1c.413-.787 1.45-.84 2.063-.303.255.145.44.37.54.656.074.21.083.42.048.625.003.044-.903 4.93-.903 4.93l11.348-3.982a1.512 1.512 0 011.93.928 1.513 1.513 0 01-.927 1.93l-6.67 2.34.18.422.034-.007a1.512 1.512 0 011.93.928 1.513 1.513 0 01-.927 1.93l-.034.008.082.232.067-.023a1.512 1.512 0 011.93.928 1.513 1.513 0 01-.927 1.93l-.068.024.085.24.111-.04a1.512 1.512 0 011.93.928c.089 1.085-.404 1.467-.926 1.934zM-20.099 26.948c12.12 13.761 2.276 17.065-9.972 17.13-.888-.019-1.398-.924-1.19-1.712.015-.293.134-.56.347-.776.155-.16.34-.262.538-.322.038-.022 4.815-1.386 4.815-1.386l-8.619-8.388a1.514 1.514 0 112.112-2.172l5.066 4.93.297-.35-.023-.026a1.514 1.514 0 112.111-2.172l.023.027.172-.177-.053-.049a1.513 1.513 0 112.112-2.172l.053.049.178-.183-.084-.083a1.514 1.514 0 01-.03-2.141c.932-.562 1.49-.293 2.143-.03zM-45.132 15.63c5.27-17.667 13.11-11.2 19.809-.716.457.761-.034 1.676-.813 1.92a1.18 1.18 0 01-.84.121 1.233 1.233 0 01-.56-.283c-.039-.02-3.744-3.331-3.744-3.331l-2.489 11.766a1.512 1.512 0 01-1.795 1.168 1.513 1.513 0 01-1.168-1.795l1.462-6.915-.454-.065-.01.034a1.512 1.512 0 01-1.796 1.168 1.513 1.513 0 01-1.169-1.795l.012-.034-.242-.05-.015.07a1.512 1.512 0 01-1.795 1.168 1.513 1.513 0 01-1.168-1.796l.015-.07-.25-.053-.023.116a1.512 1.512 0 01-1.795 1.169c-.973-.488-1.044-1.107-1.172-1.796z" stroke-width=".277" stroke-linejoin="round"/><circle cy="26.455" cx="-31.831" stroke-width=".46" stroke-linejoin="round" stroke-dasharray=".46 1.381" paint-order="markers stroke fill" r="20.147"/><circle cy="26.443" cx="-39.879" stroke-width=".46" stroke-linejoin="round" stroke-dasharray=".46 1.381" paint-order="markers stroke fill" r="20.147"/><circle cy="31.435" cx="-35.716" stroke-width=".46" stroke-linejoin="round" stroke-dasharray=".46 1.381" paint-order="markers stroke fill" r="20.147"/><path d="M-61.365 39.568h51.932M-61.365 50.481l27.163-47.047M-9.433 51.746L-37.326 3.434" stroke-width=".277" stroke-linejoin="round" stroke-dasharray=".277 .83" paint-order="markers stroke fill"/></g><g stroke-width=".529" stroke-linejoin="round" stroke-dasharray=".529 1.587" paint-order="markers stroke fill"><path d="M5.662 2.93v46.5M8.51 2.988v46.5M11.416 2.988v46.5M17.229 2.988v46.5M20.135 2.988v46.5M23.041 2.988v46.5M2.756 5.837h69.749M2.756 8.743h69.749M2.756 11.649h69.749M69.599 2.93v46.5M66.692 2.93v46.5M63.786 2.93v46.5M72.505 46.524H2.755M72.505 43.617H2.755M72.505 40.711H2.755M57.974 2.93v46.5M55.068 2.93v46.5M52.161 2.93v46.5M46.349 2.93v46.5M43.443 2.93v46.5M40.536 49.43V2.93M34.724 2.93v46.5M31.818 49.43V2.93M28.912 2.93v46.5M2.756 34.899h69.749M72.505 31.992H2.755M72.505 29.086H2.755M2.756 23.274h69.749M72.505 20.368H2.755M2.756 17.461h69.749" stroke-width=".11621072"/></g><path d="M75.47 2.93v46.5M78.317 2.988v46.5M81.223 2.988v46.5M87.036 2.988v46.5M89.942 2.988v46.5M92.848 2.988v46.5M72.563 5.837l30.573-.059M72.563 8.743h30.515M72.563 11.649h30.515M103.078 46.524H72.563M103.078 43.617H72.563M103.078 40.711H72.563M98.719 2.93v46.5M72.563 34.899h30.515M103.078 31.992H72.563M103.078 29.086H72.563M72.563 23.274h30.515M103.078 20.368H72.563M72.563 17.461h30.515" stroke-width=".116" stroke-linejoin="round" stroke-dasharray=".116 .349" paint-order="markers stroke fill"/></g><text style="line-height:1.25;-inkscape-font-specification:Roboto;text-align:center" x="50.445" y="24.528" transform="scale(1.04938 .95294)" font-weight="400" font-size="12.7" font-family="Roboto" text-anchor="middle" fill="#0d0089" stroke-width=".319"><tspan style="-inkscape-font-specification:Roboto;text-align:center" x="50.445" y="24.528">wearable</tspan><tspan style="-inkscape-font-specification:Roboto;text-align:center" x="50.445" y="40.403">sensations</tspan></text></svg>