<svg width="200" height="200" viewBox="0 0 52.917 52.917" xmlns="http://www.w3.org/2000/svg"><g fill="none" stroke="#00897b" stroke-width=".529" stroke-linecap="round" stroke-linejoin="round" paint-order="markers fill stroke"><path d="M41.25 13.91l-4.007 2.334c-.56.337-1.198.648-7.538-.918l-5.524.363c-1.69.244-2.852 1.113-3.458 2.204-.19.265-3.29 4.63-2.63 5.086 3.288 1.739 5.424-2.031 5.876-2.722l1.937-.487c4.493 2.516 9.224 5.247 13.467 8.97 2.326-1.214 2.193-1.632 3.173-3.47l3.794-2.238M15.501 29.54c-.608 1.062-1.305 2.18-2.679 1.939-2.711-.476-1.149-3.162.45-3.635 1.955-.544 2.653.955 2.23 1.696zM24.477 36.023c-.328 1.368-1.789 2.745-2.188 2.834-1.237.543-2.492-.953-1.978-1.85.461-.806 1.284-1.817 1.825-2.326 1.14-.488 2.623.164 2.34 1.342z"/><path d="M19.653 36.724c-1.388.587-2.93-.68-2.485-1.997.446-1.324 2.436-3.145 3.002-3.546 2.498-.106 2.404 1.424 2.012 2.519-.566 1.344-1.346 2.591-2.53 3.024zM17.91 28.272c1.361.19 2.319 1.195 1.647 2.572-.675 1.383-2.173 3.106-2.555 3.078-2.077 1.425-3.645-.716-2.804-2.427 2.207-2.074 2.615-2.99 3.712-3.223zM24.341 36.922a15.385 15.385 0 004.134 1.917M20.65 17.643c-1.407-.108-3.936-.747-5.101-1.465l-3.109-1.953M6.577 23.26l3.922 2.367a30.013 30.013 0 001.8 2.788M28.165 38.776c1.697.758 3.376-.46 2.416-2.112M26.314 33.877l4.795 2.954c2.266 1.396 4.664-1.401 2.358-2.738l-5.19-3.01M33.685 34.243c3.417 1.107 3.745-1.598 3.02-2.65M30.27 27.583l6.401 3.954c3.757 1.1 3.657-2.319 2.363-3.11"/></g></svg>