<svg width="200" height="200" viewBox="0 0 52.917 52.917" xmlns="http://www.w3.org/2000/svg"><path d="M5.045 39.168s2.44-4.224 3.977-.926c.279.599.534 1.473 1.46 1.053 0 0-1.032-3.786-2.433-3.36-1.401.427-1.218-.269-1.218-.269-.293.306 2.16-.213 3.465.539 1.303.75 2.052.498 2.14-.166l-2.563-1.125c-.263-.12.168-.08 1.67.212 0 0 1.216.549 1.77-.758.051-.12-3.107-.647-3.123-.742l-3.902 1.658zM46.009 40.065s-4.834.655-3.166-2.578c.303-.587.838-1.324-.06-1.8 0 0-2.363 3.134-1.169 3.981 1.195.847.532 1.128.532 1.128.421.044-1.49-1.578-1.695-3.07-.204-1.49-.861-1.928-1.44-1.591l.68 2.715c.064.282-.167-.084-.856-1.45 0 0-.31-1.298-1.682-.936-.127.033 1.39 2.853 1.324 2.923l3.7 2.072zM28.345 6.2s4.048 2.721.654 4.03c-.617.237-1.506.433-1.15 1.385 0 0 3.847-.773 3.517-2.2-.33-1.426.351-1.196.351-1.196-.285-.313.066 2.17-.772 3.42-.837 1.25-.637 2.014.02 2.147l1.296-2.481c.138-.254.068.173-.325 1.652 0 0-.63 1.176.636 1.817.117.06.857-3.056.953-3.065l-1.39-4.006z" stroke="#000" stroke-width=".265"/><ellipse cx="41.596" cy="28.668" rx="10.04" ry="10.913" transform="skewX(-28.231) scale(1 .88105)" fill="none" stroke="#dff0ee" stroke-width="1.128" stroke-linecap="round" stroke-linejoin="round" paint-order="stroke fill markers"/><ellipse cx="41.467" cy="21.722" rx="1.283" ry="1.393" transform="skewX(-28.231) scale(1 .88105)" fill="#dff0ee" paint-order="stroke fill markers"/><path d="M26.845 23.875l-3.097-1.345c-.543-.245.607-1.669 1.246-1.46l2.756 1.191h3.317l4.343-1.19c.82-.26.72.954-.277 1.306l-4.544 1.421-1.644 2.92-1.478 4.764c-.297.932-1.678 1.206-1.52.461l1.097-4.918-4.101 4.765c-.846.935-1.937.535-1.384-.154l3.633-4.61z" fill="#dff0ee"/><ellipse cx="41.596" cy="28.668" rx="10.04" ry="10.913" transform="skewX(-28.231) scale(1 .88105)" fill="none" paint-order="stroke fill markers"/><ellipse cx="40.061" cy="16.304" rx="1.283" ry="1.393" transform="skewX(-28.231) scale(1 .88105)" fill="teal" paint-order="stroke fill markers"/><path d="M38.014 29.31l-3.097-1.345c-.542-.245.608-1.67 1.247-1.46l2.755 1.19h3.318l4.343-1.19c.82-.26.72.955-.277 1.306l-4.544 1.422-1.645 2.92-1.478 4.764c-.297.931-1.678 1.205-1.52.46l1.097-4.917-4.101 4.764c-.846.935-1.937.536-1.384-.154l3.633-4.61z" fill="teal"/><ellipse cx="38.136" cy="35.682" rx="10.04" ry="10.913" transform="skewX(-28.231) scale(1 .88105)" fill="none" stroke="teal" stroke-width="1.128" stroke-linecap="round" stroke-linejoin="round" paint-order="stroke fill markers"/><path d="M11.837-10.11C16.498-5.365 22.544-3.127 27.012.549a19.724 19.724 0 012.005 1.884c1.291 1.455 3.293 3.986 3.293 3.986l3.036 7.696c.432 1.094-1.578-.312-1.356-.393l-2.159-3.757-2.074-1.948s.628 3.23-.137 3.954c-.766.723-.964-1.629-.964-1.629l-1.288-3.007-.342-2.488L19.16.628 4.824-7.062M67.297 41.154c-7.693-.52-14.54 2.713-21.173 2.038-1.931-.23-5.109-.791-5.109-.791l-7.382-3.736c-1.05-.531 1.387-.815 1.275-.607l4.109 1.374 2.845.078s-2.616-1.997-2.524-3.047c.092-1.05 1.802.578 1.802.578l2.96 1.392 1.909 1.632 24.506-5.848M-10.103 56.746c5.119-5.765 6.751-13.158 11.344-17.992 1.363-1.387 3.752-3.556 3.752-3.556l7.472-3.553c1.063-.505-.203 1.595-.3 1.38l-3.6 2.409-1.803 2.202s3.18-.847 3.954-.132-1.56 1.073-1.56 1.073l-2.912 1.488-2.46.511-10.37 22.96" fill="#fff" stroke="#000" stroke-width=".265"/></svg>