<?xml version="1.0" encoding="UTF-8" standalone="no"?>
<svg
   width="200"
   height="200"
   viewBox="0 0 52.917 52.917"
   version="1.1"
   id="svg31"
   sodipodi:docname="experience.svg"
   inkscape:version="1.1.2 (b8e25be833, 2022-02-05)"
   xmlns:inkscape="http://www.inkscape.org/namespaces/inkscape"
   xmlns:sodipodi="http://sodipodi.sourceforge.net/DTD/sodipodi-0.dtd"
   xmlns="http://www.w3.org/2000/svg"
   xmlns:svg="http://www.w3.org/2000/svg">
  <sodipodi:namedview
     id="namedview33"
     pagecolor="#ffffff"
     bordercolor="#666666"
     borderopacity="1.0"
     inkscape:pageshadow="2"
     inkscape:pageopacity="0.0"
     inkscape:pagecheckerboard="0"
     showgrid="false"
     inkscape:zoom="3.725"
     inkscape:cx="100"
     inkscape:cy="78.389262"
     inkscape:window-width="1920"
     inkscape:window-height="1057"
     inkscape:window-x="-8"
     inkscape:window-y="-8"
     inkscape:window-maximized="1"
     inkscape:current-layer="svg31" />
  <defs
     id="defs5">
    <clipPath
       clipPathUnits="userSpaceOnUse"
       id="prefix__a">
      <ellipse
         cx="25.253"
         cy="23.11"
         rx="6.291"
         ry="6.374"
         fill="#00897b"
         stroke-width=".698"
         stroke-linecap="round"
         stroke-linejoin="round"
         paint-order="stroke markers fill"
         id="ellipse2" />
    </clipPath>
  </defs>
  <g
     clip-path="url(#prefix__a)"
     transform="matrix(0.81574,0,0,0.81574,7.4484727,6.574855)"
     stroke-width="0.588"
     stroke-linecap="round"
     id="g15"
     style="fill:none;stroke:#00897b">
    <path
       d="m 26.57,22.85 c 0,-1.606 -2.165,-1.981 -2.499,0.893 -0.225,1.941 -1.095,4.02 -2.782,4.408 m 1.01,0.821 c 1.634,-0.593 2.888,-3.261 3.092,-5.933 m -1.241,6.362 c 1.216,-1.512 1.917,-2.736 2.33,-5.434"
       id="path7" />
    <path
       d="m 25.534,29.628 c 1.445,-1.651 2.48,-4.664 2.326,-6.956 -0.133,-1.984 -1.76,-2.3 -2.51,-2.237 -3.548,0.299 -1.605,6.12 -4.781,6.635"
       id="path9" />
    <path
       d="m 27.377,29.381 c 1.956,-4.046 1.906,-4.977 1.84,-6.756 -0.108,-2.855 -2.773,-3.509 -3.798,-3.492 -4.946,0.08 -2.714,6.58 -5.555,6.889"
       id="path11" />
    <path
       d="m 29.263,28.36 c 5.23,-10.48 -6.895,-14.076 -8.52,-6.199 -0.135,0.652 -0.598,2.445 -1.53,2.175"
       stroke-linejoin="round"
       id="path13" />
  </g>
  <path
     d="m 23.371,22.274 -3.338,-2.577 m 5.743,10.671 -1.241,3.687 m -11.797,-3.128 9.811,-3.628 m 8.5,-5.764 2.55,-3 m 5.794,11.494 -6.957,-2.523"
     stroke-width="0.529"
     stroke-linecap="square"
     stroke-linejoin="round"
     paint-order="markers fill stroke"
     id="path17"
     style="fill:none;stroke:#00897b" />
  <circle
     cx="-31.999001"
     cy="9.5249996"
     r="3.3310001"
     transform="rotate(-90)"
     stroke-width="0.529"
     stroke-linecap="round"
     stroke-linejoin="round"
     paint-order="markers fill stroke"
     id="circle19"
     style="fill:none;stroke:#00897b" />
  <circle
     cx="-36.474998"
     cy="23.476"
     r="2.5739999"
     transform="rotate(-90)"
     stroke-width="0.529"
     stroke-linecap="round"
     stroke-linejoin="round"
     paint-order="markers fill stroke"
     id="circle21"
     style="fill:none;stroke:#00897b" />
  <circle
     cx="-31.872999"
     cy="42.960999"
     r="3.7609999"
     transform="rotate(-90)"
     stroke-width="0.529"
     stroke-linecap="round"
     stroke-linejoin="round"
     paint-order="markers fill stroke"
     id="circle23"
     style="fill:none;stroke:#00897b" />
  <circle
     cx="-18.448"
     cy="18.337999"
     r="2.109"
     transform="rotate(-90)"
     stroke-width="0.529"
     stroke-linecap="round"
     stroke-linejoin="round"
     paint-order="markers fill stroke"
     id="circle25"
     style="fill:none;stroke:#00897b" />
  <circle
     cx="-16.441999"
     cy="35.606998"
     r="2.5739999"
     transform="rotate(-90)"
     stroke-width="0.529"
     stroke-linecap="round"
     stroke-linejoin="round"
     paint-order="markers fill stroke"
     id="circle27"
     style="fill:none;stroke:#00897b" />
</svg>
