<svg width="200" height="200" viewBox="0 0 52.917 52.917" xmlns="http://www.w3.org/2000/svg"><defs><clipPath clipPathUnits="userSpaceOnUse" id="prefix__a"><ellipse cx="25.253" cy="23.11" rx="6.291" ry="6.374" fill="#00897b" stroke-width=".698" stroke-linecap="round" stroke-linejoin="round" paint-order="stroke markers fill"/></clipPath></defs><g fill="none" stroke="#00897b"><g clip-path="url(#prefix__a)" transform="matrix(0 -.81574 .81574 0 8.563 46.1)" stroke-width=".588" stroke-linecap="round"><path d="M26.57 22.85c0-1.606-2.165-1.981-2.499.893-.225 1.941-1.095 4.02-2.782 4.408M22.299 28.972c1.634-.593 2.888-3.261 3.092-5.933M24.15 29.401c1.216-1.512 1.917-2.736 2.33-5.434"/><path d="M25.534 29.628c1.445-1.651 2.48-4.664 2.326-6.956-.133-1.984-1.76-2.3-2.51-2.237-3.548.299-1.605 6.12-4.781 6.635"/><path d="M27.377 29.381c1.956-4.046 1.906-4.977 1.84-6.756-.108-2.855-2.773-3.509-3.798-3.492-4.946.08-2.714 6.58-5.555 6.889"/><path d="M29.263 28.36c5.23-10.48-6.895-14.076-8.52-6.199-.135.652-.598 2.445-1.53 2.175" stroke-linejoin="round"/></g><path d="M23.371 22.274l-3.338-2.577M25.776 30.368l-1.241 3.687M12.738 30.927l9.811-3.628M31.049 21.535l2.55-3M39.393 30.029l-6.957-2.523" stroke-width=".529" stroke-linecap="square" stroke-linejoin="round" paint-order="markers fill stroke"/><circle cx="-31.999" cy="9.525" r="3.331" transform="rotate(-90)" stroke-width=".529" stroke-linecap="round" stroke-linejoin="round" paint-order="markers fill stroke"/><circle cx="-36.475" cy="23.476" r="2.574" transform="rotate(-90)" stroke-width=".529" stroke-linecap="round" stroke-linejoin="round" paint-order="markers fill stroke"/><circle cx="-31.873" cy="42.961" r="3.761" transform="rotate(-90)" stroke-width=".529" stroke-linecap="round" stroke-linejoin="round" paint-order="markers fill stroke"/><circle cx="-18.448" cy="18.338" r="2.109" transform="rotate(-90)" stroke-width=".529" stroke-linecap="round" stroke-linejoin="round" paint-order="markers fill stroke"/><circle cx="-16.442" cy="35.607" r="2.574" transform="rotate(-90)" stroke-width=".529" stroke-linecap="round" stroke-linejoin="round" paint-order="markers fill stroke"/></g></svg>