<svg width="24" height="24" xmlns="http://www.w3.org/2000/svg"><path d="M12 .296c-6.626 0-12 5.373-12 12 0 5.302 3.438 9.8 8.207 11.387.599.11.793-.261.793-.577v-2.234c-3.338.726-4.033-1.416-4.033-1.416-.546-1.387-1.333-1.756-1.333-1.756-1.089-.745.083-.73.083-.73 1.205.085 1.839 1.238 1.839 1.238 1.07 1.834 2.807 1.304 3.492.997.107-.775.418-1.305.762-1.604-2.665-.305-5.467-1.334-5.467-5.931 0-1.311.469-2.381 1.236-3.221-.124-.303-.535-1.524.117-3.176 0 0 1.008-.322 3.301 1.23A11.509 11.509 0 0112 6.099c1.02.005 2.047.138 3.006.404 2.291-1.552 3.297-1.23 3.297-1.23.653 1.653.242 2.874.118 3.176.77.84 1.235 1.91 1.235 3.22 0 4.61-2.807 5.625-5.479 5.922.43.372.823 1.102.823 2.222v3.293c0 .319.192.694.801.576C20.566 22.092 24 17.596 24 12.296c0-6.627-5.373-12-12-12z" fill="#ffffff"/></svg>