<svg width="3705" height="900" viewBox="0 0 3705 900" fill="none" xmlns="http://www.w3.org/2000/svg">
<g opacity="0.15" clip-path="url(#clip0_124_502)">
<path d="M3678.77 1.99939H23.2334C11.5065 1.99939 2 11.5059 2 23.2328V876.767C2 888.494 11.5065 898.001 23.2334 898.001H3678.77C3690.49 898.001 3700 888.494 3700 876.767V23.2328C3700 11.5059 3690.49 1.99939 3678.77 1.99939Z" fill="#00897B" stroke="#00897B" stroke-width="6.98079" stroke-linecap="round" stroke-linejoin="round"/>
<path d="M3650 51.9988H52V847.998H3650V51.9988Z" stroke="white" stroke-opacity="0.256" stroke-width="10.0006" stroke-linecap="round" stroke-linejoin="round"/>
<path d="M50.0039 250.001H1250M50.0039 450.002H1250M50.0039 650.003H1250M250.001 50.0032V850.001M450.003 50.0032V850.001M650.004 50.0032V850.001M850.001 50.0032V850.001M1050 50.0032V850.001M1248 51.9988V852" stroke="white" stroke-opacity="0.256" stroke-width="3.99874" stroke-linecap="round" stroke-linejoin="round"/>
<path d="M1250 250.001H2450M1250 450.002H2450M1250 650.003H2450M1450 50.0032V850.001M1650 50.0032V850.001M1850 50.0032V850.001M2050 50.0032V850.001M2250 50.0032V850.001M2448 51.9988V852" stroke="white" stroke-opacity="0.256" stroke-width="3.99874" stroke-linecap="round" stroke-linejoin="round"/>
<path d="M2450 250.001H3650M2450 450.002H3650M2450 650.003H3650M2650 50.0032V850.001M2850 50.0032V850.001M3050 50.0032V850.001M3250 50.0032V850.001M3450 50.0032V850.001" stroke="white" stroke-opacity="0.256" stroke-width="3.99874" stroke-linecap="round" stroke-linejoin="round"/>
<path d="M99.9995 50.0032V850.001M149.001 51.001V850.998M199 51.001V850.998M298.999 51.001V850.998M349.002 51.001V850.998M399.002 51.001V850.998M50.0039 99.9988H1250M50.0039 150.002H1250M50.0039 200.001H1250M1200 50.0032V850.001M1150 50.0032V850.001M1100 50.0032V850.001M1250 800.001H50.0039M1250 749.998H50.0039M1250 699.999H50.0039M1000 50.0032V850.001M950 50.0032V850.001M900.001 50.0032V850.001M800.002 50.0032V850.001M749.999 50.0032V850.001M700 850.001V49.9994M600.001 50.0032V850.001M549.998 850.001V49.9994M500.002 50.0032V850.001M50.0039 600H1250M1250 549.997H50.0039M1250 500.001H50.0039M50.0039 399.999H1250M1250 349.999H50.0039M50.0039 300H1250" stroke="white" stroke-opacity="0.5" stroke-width="1.99937" stroke-linecap="round" stroke-linejoin="round" stroke-dasharray="2 6"/>
<path d="M1300 50.0032V850.001M1349 51.001V850.998M1399 51.001V850.998M1499 51.001V850.998M1549 51.001V850.998M1599 51.001V850.998M1250 99.9988H2450M1250 150.002H2450M1250 200.001H2450M2400 50.0032V850.001M2350 50.0032V850.001M2300 50.0032V850.001M2450 800.001H1250M2450 749.998H1250M2450 699.999H1250M2200 50.0032V850.001M2150 50.0032V850.001M2100 50.0032V850.001M2000 50.0032V850.001M1950 50.0032V850.001M1900 850.001V49.9994M1800 50.0032V850.001M1750 850.001V49.9994M1700 50.0032V850.001M1250 600H2450M2450 549.997H1250M2450 500.001H1250M1250 399.999H2450M2450 349.999H1250M1250 300H2450" stroke="white" stroke-opacity="0.5" stroke-width="1.99937" stroke-linecap="round" stroke-linejoin="round" stroke-dasharray="2 6"/>
<path d="M2499 50.0032V850.001M2548 51.001V850.998M2598 51.001V850.998M2698 51.001V850.998M2748 51.001V850.998M2798 51.001V850.998M2449 99.9988H3649M2449 150.002H3649M2449 200.001H3649M3599 50.0032V850.001M3549 50.0032V850.001M3499 50.0032V850.001M3649 800.001H2449M3649 749.998H2449M3649 699.999H2449M3399 50.0032V850.001M3349 50.0032V850.001M3299 50.0032V850.001M3199 50.0032V850.001M3149 50.0032V850.001M3099 850.001V49.9994M2999 50.0032V850.001M2949 850.001V49.9994M2899 50.0032V850.001M2449 600H3649M3649 549.997H2449M3649 500.001H2449M2449 399.999H3649M3649 349.999H2449M2449 300H3649" stroke="white" stroke-opacity="0.5" stroke-width="1.99937" stroke-linecap="round" stroke-linejoin="round" stroke-dasharray="2 6"/>
<path d="M1829.66 545.263C1877.3 555.346 1924.1 524.887 1934.18 477.229C1944.27 429.572 1913.82 382.764 1866.18 372.68C1818.54 362.597 1771.74 393.057 1761.65 440.714C1751.57 488.371 1782.01 535.18 1829.66 545.263Z" stroke="white" stroke-width="3.99874" stroke-linecap="round"/>
<path d="M1763.82 665.639C1525.62 723.746 1539.1 581.975 1606.31 426.282C1612.28 414.909 1627.28 414.13 1636.13 421.905C1639.82 423.995 1642.51 427.238 1643.94 431.388C1644.95 434.29 1645.19 437.402 1644.64 440.425C1644.68 441.052 1631.58 511.672 1631.58 511.672L1795.62 454.125C1798.34 453.17 1801.21 452.759 1804.08 452.916C1806.96 453.073 1809.77 453.796 1812.36 455.042C1814.95 456.289 1817.28 458.034 1819.19 460.18C1821.11 462.325 1822.58 464.827 1823.53 467.543C1824.49 470.255 1824.9 473.13 1824.74 476.002C1824.58 478.873 1823.86 481.686 1822.61 484.278C1821.37 486.87 1819.62 489.191 1817.48 491.107C1815.33 493.024 1812.83 494.499 1810.12 495.447L1713.7 529.27L1716.31 535.363L1716.8 535.253C1719.51 534.298 1722.39 533.887 1725.26 534.045C1728.13 534.202 1730.95 534.925 1733.54 536.172C1736.13 537.418 1738.45 539.163 1740.37 541.308C1742.28 543.453 1743.76 545.955 1744.71 548.67C1745.66 551.383 1746.07 554.257 1745.91 557.129C1745.76 560.001 1745.03 562.813 1743.79 565.405C1742.54 567.997 1740.8 570.317 1738.65 572.234C1736.51 574.151 1734.01 575.626 1731.29 576.575L1730.8 576.688L1731.99 580.044L1732.96 579.715C1735.67 578.759 1738.55 578.348 1741.42 578.505C1744.29 578.662 1747.11 579.384 1749.7 580.631C1752.29 581.877 1754.61 583.623 1756.53 585.769C1758.45 587.914 1759.92 590.416 1760.87 593.133C1761.82 595.846 1762.23 598.72 1762.08 601.592C1761.92 604.464 1761.19 607.277 1759.95 609.869C1758.7 612.461 1756.96 614.782 1754.81 616.698C1752.67 618.615 1750.17 620.089 1747.45 621.037L1746.47 621.366L1747.7 624.854L1749.31 624.265C1752.02 623.309 1754.9 622.898 1757.77 623.055C1760.64 623.212 1763.45 623.934 1766.05 625.18C1768.64 626.426 1770.96 628.171 1772.88 630.316C1774.79 632.461 1776.27 634.963 1777.22 637.678C1778.49 653.356 1771.37 658.885 1763.82 665.632V665.639ZM2073.66 438.558C2248.87 637.478 2106.55 685.232 1929.51 686.173C1916.67 685.901 1909.29 672.816 1912.31 661.421C1912.53 657.188 1914.24 653.34 1917.32 650.207C1919.47 648.012 1922.15 646.41 1925.1 645.558C1925.65 645.233 1994.71 625.516 1994.71 625.516L1870.11 504.276C1868.05 502.273 1866.4 499.882 1865.26 497.241C1864.12 494.6 1863.51 491.761 1863.47 488.885C1863.43 486.009 1863.96 483.154 1865.02 480.482C1866.09 477.81 1867.67 475.375 1869.68 473.314C1871.68 471.251 1874.07 469.603 1876.71 468.464C1879.35 467.325 1882.19 466.718 1885.07 466.677C1887.94 466.637 1890.8 467.163 1893.47 468.227C1896.14 469.29 1898.58 470.87 1900.64 472.876L1973.86 544.135L1978.15 539.089L1977.83 538.707C1975.76 536.704 1974.11 534.314 1972.98 531.673C1971.84 529.032 1971.23 526.193 1971.19 523.317C1971.15 520.442 1971.67 517.586 1972.74 514.914C1973.8 512.242 1975.38 509.806 1977.39 507.746C1979.39 505.682 1981.78 504.033 1984.42 502.894C1987.06 501.755 1989.9 501.148 1992.78 501.107C1995.65 501.067 1998.51 501.593 2001.18 502.657C2003.85 503.721 2006.29 505.301 2008.35 507.307L2008.68 507.693L2011.16 505.134L2010.4 504.431C2008.33 502.428 2006.69 500.038 2005.55 497.397C2004.41 494.756 2003.8 491.917 2003.76 489.041C2003.72 486.165 2004.25 483.309 2005.31 480.637C2006.37 477.965 2007.95 475.53 2009.96 473.469C2011.96 471.406 2014.35 469.757 2017 468.619C2019.64 467.48 2022.48 466.873 2025.35 466.833C2028.23 466.792 2031.08 467.319 2033.75 468.383C2036.43 469.448 2038.86 471.028 2040.92 473.034L2041.69 473.737L2044.26 471.092L2043.05 469.901C2040.98 467.898 2039.33 465.507 2038.2 462.866C2037.06 460.225 2036.45 457.386 2036.41 454.51C2036.37 451.635 2036.9 448.779 2037.96 446.107C2039.03 443.436 2040.61 441 2042.61 438.939C2056.09 430.813 2064.16 434.714 2073.59 438.501L2073.66 438.558ZM1711.79 274.961C1787.97 19.5629 1901.3 113.053 1998.14 264.601C2004.75 275.603 1997.65 288.824 1986.39 292.358C1982.69 294.421 1978.53 295.038 1974.23 294.104C1971.23 293.458 1968.45 292.046 1966.15 290.007C1965.59 289.735 1912.03 241.856 1912.03 241.856L1876.06 411.942C1875.46 414.757 1874.32 417.427 1872.7 419.8C1871.07 422.173 1869 424.202 1866.59 425.771C1864.17 427.34 1861.48 428.417 1858.65 428.942C1855.82 429.467 1852.92 429.428 1850.11 428.829C1847.29 428.237 1844.62 427.096 1842.25 425.471C1839.87 423.845 1837.84 421.767 1836.28 419.357C1834.71 416.946 1833.63 414.249 1833.1 411.421C1832.58 408.592 1832.62 405.688 1833.21 402.875L1854.36 302.914L1847.8 301.977L1847.63 302.468C1847.04 305.283 1845.9 307.953 1844.28 310.326C1842.65 312.699 1840.57 314.728 1838.16 316.297C1835.75 317.866 1833.06 318.943 1830.23 319.468C1827.4 319.993 1824.5 319.954 1821.68 319.355C1818.87 318.764 1816.2 317.623 1813.82 315.998C1811.45 314.373 1809.42 312.295 1807.85 309.885C1806.28 307.474 1805.21 304.778 1804.68 301.95C1804.16 299.122 1804.19 296.218 1804.79 293.405L1804.96 292.913L1801.47 292.18L1801.25 293.197C1800.66 296.012 1799.52 298.683 1797.89 301.056C1796.27 303.429 1794.19 305.459 1791.78 307.027C1789.37 308.596 1786.67 309.674 1783.84 310.198C1781.01 310.723 1778.11 310.684 1775.3 310.084C1772.48 309.492 1769.81 308.351 1767.44 306.725C1765.07 305.1 1763.04 303.022 1761.47 300.611C1759.9 298.2 1758.82 295.504 1758.29 292.675C1757.77 289.847 1757.81 286.943 1758.41 284.13L1758.63 283.117L1755.01 282.35L1754.68 284.032C1754.09 286.847 1752.95 289.517 1751.33 291.891C1749.7 294.264 1747.62 296.294 1745.21 297.863C1742.8 299.432 1740.11 300.51 1737.28 301.035C1734.45 301.56 1731.55 301.522 1728.73 300.922C1714.67 293.87 1713.64 284.916 1711.8 274.957L1711.79 274.961Z" stroke="white" stroke-width="3.99874" stroke-linecap="round" stroke-linejoin="round"/>
<path d="M1904.06 722.646C2064.9 722.646 2195.29 592.26 2195.29 431.422C2195.29 270.583 2064.9 140.198 1904.06 140.198C1743.23 140.198 1612.84 270.583 1612.84 431.422C1612.84 592.26 1743.23 722.646 1904.06 722.646Z" stroke="white" stroke-width="6.65575" stroke-linecap="round" stroke-linejoin="round" stroke-dasharray="6.66 19.97"/>
<path d="M1787.73 722.479C1948.56 722.479 2078.95 592.094 2078.95 431.255C2078.95 270.417 1948.56 140.031 1787.73 140.031C1626.89 140.031 1496.5 270.417 1496.5 431.255C1496.5 592.094 1626.89 722.479 1787.73 722.479Z" stroke="white" stroke-width="6.65575" stroke-linecap="round" stroke-linejoin="round" stroke-dasharray="6.66 19.97"/>
<path d="M1847.91 794.646C2008.75 794.646 2139.13 664.26 2139.13 503.422C2139.13 342.583 2008.75 212.198 1847.91 212.198C1687.07 212.198 1556.69 342.583 1556.69 503.422C1556.69 664.26 1687.07 794.646 1847.91 794.646Z" stroke="white" stroke-width="6.65575" stroke-linecap="round" stroke-linejoin="round" stroke-dasharray="6.66 19.97"/>
<path d="M1477.14 620.976H2227.84M1477.14 778.734L1869.79 98.6532M2227.84 797.015L1824.64 98.6532" stroke="white" stroke-width="3.99874" stroke-linecap="round" stroke-linejoin="round" stroke-dasharray="4 12"/>
</g>
<defs>
<clipPath id="clip0_124_502">
<rect width="3704.98" height="900" fill="white"/>
</clipPath>
</defs>
</svg>
