<svg width="3704.981" height="900" viewBox="0 0 980.276 238.125" xmlns="http://www.w3.org/2000/svg"><rect width="978.429" height="237.067" x=".529" y=".529" ry="5.618" fill="#00897b" stroke="#00897b" stroke-width="1.847" stroke-linecap="round" stroke-linejoin="round" paint-order="markers stroke fill"/><g fill="none" stroke="#fff" stroke-linecap="round" stroke-linejoin="round" stroke-opacity=".256" paint-order="markers stroke fill"><rect width="951.971" height="210.608" x="13.758" y="13.758" ry="0" stroke-width="2.646"/><g stroke-width="1.058"><path d="M13.23 66.146h317.5M13.23 119.063h317.5M13.23 171.98h317.5M66.146 13.23v211.666M119.063 13.23v211.666M171.98 13.23v211.666M224.896 13.23v211.666M277.813 13.23v211.666M330.2 13.758v211.667"/></g><g stroke-width="1.058"><path d="M330.73 66.146h317.5M330.73 119.063h317.5M330.73 171.98h317.5M383.646 13.23v211.666M436.562 13.23v211.666M489.48 13.23v211.666M542.396 13.23v211.666M595.312 13.23v211.666M647.7 13.758v211.667"/></g><g stroke-width="1.058"><path d="M648.23 66.146h317.5M648.23 119.063h317.5M648.23 171.98h317.5M701.146 13.23v211.666M754.062 13.23v211.666M806.98 13.23v211.666M859.896 13.23v211.666M912.812 13.23v211.666"/></g></g><g fill="none" stroke="#fff" stroke-width=".529" stroke-linecap="round" stroke-linejoin="round" stroke-dasharray=".529 1.587" stroke-opacity=".5" paint-order="markers stroke fill"><path d="M26.458 13.23v211.666M39.423 13.494V225.16M52.652 13.494V225.16M79.11 13.494V225.16M92.34 13.494V225.16M105.569 13.494V225.16M13.23 26.458h317.5M13.23 39.688h317.5M13.23 52.917h317.5M317.5 13.23v211.666M304.27 13.23v211.666M291.042 13.23v211.666M330.73 211.667H13.23M330.73 198.437H13.23M330.73 185.208H13.23M264.583 13.23v211.666M251.354 13.23v211.666M238.125 13.23v211.666M211.667 13.23v211.666M198.437 13.23v211.666M185.208 224.896V13.229M158.75 13.23v211.666M145.52 224.896V13.229M132.292 13.23v211.666M13.23 158.75h317.5M330.73 145.52H13.23M330.73 132.292H13.23M13.23 105.833h317.5M330.73 92.604H13.23M13.23 79.375h317.5"/><g><path d="M343.958 13.23v211.666M356.923 13.494V225.16M370.152 13.494V225.16M396.61 13.494V225.16M409.84 13.494V225.16M423.069 13.494V225.16M330.73 26.458h317.5M330.73 39.688h317.5M330.73 52.917h317.5M635 13.23v211.666M621.77 13.23v211.666M608.542 13.23v211.666M648.23 211.667h-317.5M648.23 198.437h-317.5M648.23 185.208h-317.5M582.083 13.23v211.666M568.854 13.23v211.666M555.625 13.23v211.666M529.167 13.23v211.666M515.937 13.23v211.666M502.708 224.896V13.229M476.25 13.23v211.666M463.02 224.896V13.229M449.792 13.23v211.666M330.73 158.75h317.5M648.23 145.52h-317.5M648.23 132.292h-317.5M330.73 105.833h317.5M648.23 92.604h-317.5M330.73 79.375h317.5"/></g><g><path d="M661.194 13.23v211.666M674.158 13.494V225.16M687.387 13.494V225.16M713.846 13.494V225.16M727.075 13.494V225.16M740.304 13.494V225.16M647.965 26.458h317.5M647.965 39.688h317.5M647.965 52.917h317.5M952.235 13.23v211.666M939.006 13.23v211.666M925.777 13.23v211.666M965.465 211.667h-317.5M965.465 198.437h-317.5M965.465 185.208h-317.5M899.319 13.23v211.666M886.09 13.23v211.666M872.86 13.23v211.666M846.402 13.23v211.666M833.173 13.23v211.666M819.944 224.896V13.229M793.485 13.23v211.666M780.256 224.896V13.229M767.027 13.23v211.666M647.965 158.75h317.5M965.465 145.52h-317.5M965.465 132.292h-317.5M647.965 105.833h317.5M965.465 92.604h-317.5M647.965 79.375h317.5"/></g></g><g fill="none" stroke="#fff" stroke-width="1.058" stroke-linecap="round"><ellipse cx="503.477" cy="17.568" transform="rotate(11.95)" rx="23.33" ry="23.337"/><path d="M466.677 176.117c-63.024 15.374-59.456-22.136-41.674-63.33 1.58-3.009 5.547-3.215 7.89-1.158.976.553 1.687 1.411 2.066 2.509a4.73 4.73 0 01.185 2.391c.01.166-3.456 18.851-3.456 18.851l43.404-15.226a5.785 5.785 0 017.384 3.55 5.785 5.785 0 01-3.549 7.383l-25.51 8.949.69 1.612.13-.029a5.785 5.785 0 017.383 3.55 5.786 5.786 0 01-3.549 7.383l-.13.03.314.888.257-.087a5.784 5.784 0 017.384 3.55 5.785 5.785 0 01-3.55 7.383l-.258.087.324.923.426-.156a5.785 5.785 0 017.384 3.549c.336 4.148-1.548 5.611-3.545 7.396zM548.655 116.035c46.358 52.631 8.704 65.266-38.14 65.515-3.396-.072-5.348-3.534-4.55-6.549.058-1.12.511-2.138 1.326-2.967a4.705 4.705 0 012.058-1.23c.145-.086 18.418-5.303 18.418-5.303L494.8 133.423a5.789 5.789 0 01-.115-8.192 5.79 5.79 0 018.192-.116l19.374 18.854 1.135-1.335-.086-.101a5.789 5.789 0 01-.116-8.192 5.789 5.789 0 018.192-.116l.087.102.657-.677-.202-.186a5.788 5.788 0 01-.116-8.192 5.789 5.789 0 018.192-.115l.202.186.682-.7-.322-.315a5.789 5.789 0 01-.115-8.192c3.567-2.15 5.7-1.118 8.196-.116zM452.911 72.75c20.157-67.574 50.14-42.838 75.763-2.741 1.75 2.911-.13 6.409-3.108 7.344-.98.546-2.081.709-3.217.462a4.716 4.716 0 01-2.139-1.084c-.147-.072-14.318-12.74-14.318-12.74l-9.519 45.002a5.784 5.784 0 01-6.866 4.468 5.786 5.786 0 01-4.469-6.867l5.595-26.448-1.736-.248-.044.13a5.784 5.784 0 01-6.866 4.468 5.785 5.785 0 01-4.469-6.866l.043-.13-.923-.194-.057.269a5.784 5.784 0 01-6.867 4.468 5.786 5.786 0 01-4.469-6.867l.058-.268-.956-.203-.087.445a5.784 5.784 0 01-6.866 4.469c-3.72-1.866-3.993-4.235-4.481-6.87z" stroke-linejoin="round"/></g><g fill="none" stroke="#fff" stroke-linecap="round" stroke-linejoin="round" paint-order="markers stroke fill"><circle cy="114.147" cx="503.783" stroke-width="1.761" stroke-dasharray="1.761 5.284" r="77.053"/><circle cy="114.103" cx="473.002" stroke-width="1.761" stroke-dasharray="1.761 5.284" r="77.053"/><circle cy="133.197" cx="488.926" stroke-width="1.761" stroke-dasharray="1.761 5.284" r="77.053"/><path d="M390.827 164.3H589.45M390.827 206.04L494.715 26.102M589.449 210.877L482.769 26.102" stroke-width="1.058" stroke-dasharray="1.058 3.175"/></g></svg>