<svg width="240" height="301" viewBox="0 0 240 301" fill="none" xmlns="http://www.w3.org/2000/svg">
<g opacity="0.5">
<path d="M236.364 0H3.636C1.62789 0 0 1.6745 0 3.7401V297.26C0 299.326 1.62789 301 3.636 301H236.364C238.372 301 240 299.326 240 297.26V3.7401C240 1.6745 238.372 0 236.364 0Z" fill="white"/>
<path d="M222.831 22.5803H17.6625C16.7508 22.5803 16.0117 23.3194 16.0117 24.2311V32.1723C16.0117 33.084 16.7508 33.8231 17.6625 33.8231H222.831C223.743 33.8231 224.482 33.084 224.482 32.1723V24.2311C224.482 23.3194 223.743 22.5803 222.831 22.5803Z" fill="#00897B" fill-opacity="0.2"/>
<path d="M67.4527 43.8597V90.1121H59.0063L38.8838 61.0011H38.545V90.1121H28.7661V43.8597H37.3481L57.3125 72.9481H57.719V43.8597H67.4527ZM75.5322 90.1121V43.8597H106.698V51.9222H85.3112V62.9433H105.095V71.0059H85.3112V82.0495H106.789V90.1121H75.5322ZM124.884 90.1121L111.65 43.8597H122.332L129.988 75.997H130.372L138.819 43.8597H147.965L156.389 76.0647H156.796L164.452 43.8597H175.134L161.9 90.1121H152.369L143.561 59.8719H143.2L134.415 90.1121H124.884ZM205.024 57.1618C204.843 55.34 204.068 53.9247 202.698 52.9159C201.328 51.9072 199.468 51.4028 197.12 51.4028C195.524 51.4028 194.176 51.6286 193.077 52.0803C191.978 52.517 191.135 53.1267 190.548 53.9096C189.976 54.6926 189.69 55.5809 189.69 56.5746C189.659 57.4027 189.833 58.1254 190.209 58.7427C190.6 59.36 191.135 59.8945 191.812 60.3461C192.49 60.7828 193.273 61.1667 194.161 61.4979C195.049 61.8141 195.998 62.0851 197.007 62.311L201.162 63.3047C203.18 63.7563 205.032 64.3586 206.718 65.1114C208.404 65.8642 209.865 66.7901 211.099 67.8892C212.334 68.9883 213.29 70.2832 213.967 71.7737C214.66 73.2643 215.014 74.9731 215.029 76.9003C215.014 79.7309 214.291 82.185 212.861 84.2628C211.446 86.3254 209.398 87.9289 206.718 89.0732C204.053 90.2024 200.839 90.767 197.075 90.767C193.341 90.767 190.089 90.1949 187.318 89.0506C184.563 87.9063 182.41 86.2125 180.859 83.9692C179.323 81.7108 178.518 78.9178 178.443 75.5904H187.905C188.011 77.1412 188.455 78.436 189.238 79.4749C190.036 80.4987 191.097 81.2741 192.422 81.8011C193.762 82.313 195.275 82.569 196.962 82.569C198.618 82.569 200.056 82.3281 201.275 81.8463C202.51 81.3645 203.466 80.6945 204.143 79.8363C204.821 78.9781 205.16 77.9919 205.16 76.8777C205.16 75.8389 204.851 74.9656 204.234 74.258C203.631 73.5503 202.743 72.9481 201.569 72.4512C200.409 71.9544 198.987 71.5027 197.3 71.0962L192.264 69.8315C188.365 68.8829 185.286 67.3999 183.027 65.3824C180.769 63.3649 179.647 60.6473 179.662 57.2295C179.647 54.4291 180.392 51.9825 181.898 49.8897C183.419 47.7969 185.504 46.1633 188.154 44.9889C190.804 43.8145 193.815 43.2273 197.187 43.2273C200.62 43.2273 203.616 43.8145 206.176 44.9889C208.751 46.1633 210.753 47.7969 212.183 49.8897C213.614 51.9825 214.351 54.4065 214.397 57.1618H205.024Z" fill="#A7A7A7" fill-opacity="0.5"/>
<path d="M109.821 121.933H17.6708C16.6078 121.933 15.7461 121.99 15.7461 122.061V131.804C15.7461 131.875 16.6078 131.933 17.6708 131.933H109.821C110.884 131.933 111.746 131.875 111.746 131.804V122.061C111.746 121.99 110.884 121.933 109.821 121.933Z" fill="#DFF0EE"/>
<path d="M109.821 141.933H17.6708C16.6078 141.933 15.7461 141.99 15.7461 142.061V151.804C15.7461 151.875 16.6078 151.933 17.6708 151.933H109.821C110.884 151.933 111.746 151.875 111.746 151.804V142.061C111.746 141.99 110.884 141.933 109.821 141.933Z" fill="#DFF0EE"/>
<path d="M109.821 161.933H17.6708C16.6078 161.933 15.7461 161.99 15.7461 162.061V171.804C15.7461 171.875 16.6078 171.933 17.6708 171.933H109.821C110.884 171.933 111.746 171.875 111.746 171.804V162.061C111.746 161.99 110.884 161.933 109.821 161.933Z" fill="#DFF0EE"/>
<path d="M109.821 181.933H17.6708C16.6078 181.933 15.7461 181.99 15.7461 182.061V191.804C15.7461 191.875 16.6078 191.933 17.6708 191.933H109.821C110.884 191.933 111.746 191.875 111.746 191.804V182.061C111.746 181.99 110.884 181.933 109.821 181.933Z" fill="#DFF0EE"/>
<path d="M221.022 121.933H132.717C131.076 121.933 129.746 123.263 129.746 124.904V204.049C129.746 205.69 131.076 207.02 132.717 207.02H221.022C222.663 207.02 223.993 205.69 223.993 204.049V124.904C223.993 123.263 222.663 121.933 221.022 121.933Z" fill="#DFF0EE"/>
<path d="M173.069 184.568C179.76 185.981 186.332 181.712 187.748 175.033C189.165 168.355 184.89 161.796 178.2 160.383C171.509 158.97 164.937 163.239 163.521 169.918C162.104 176.596 166.379 183.155 173.069 184.568Z" fill="#00897B" fill-opacity="0.5"/>
<path d="M162.516 201.559C128.887 208.957 131.223 189.137 141.147 167.534C142.021 165.96 144.129 165.897 145.348 167.014C145.859 167.319 146.226 167.781 146.415 168.367C146.554 168.795 146.565 169.222 146.485 169.635C146.486 169.724 144.428 179.577 144.428 179.577L167.643 172.025C169.261 171.499 170.993 172.377 171.52 173.992C172.048 175.606 171.167 177.333 169.549 177.86L155.905 182.298L156.252 183.159L156.32 183.142C157.938 182.616 159.669 183.494 160.197 185.108C160.724 186.722 159.844 188.45 158.226 188.976L158.157 188.994L158.313 189.468L158.451 189.422C160.069 188.896 161.8 189.774 162.328 191.389C162.855 193.003 161.975 194.73 160.357 195.257L160.219 195.302L160.38 195.795L160.608 195.718C162.225 195.191 163.957 196.07 164.485 197.684C165.012 199.298 164.132 201.026 162.514 201.552L162.516 201.559Z" fill="#FBFFFF" stroke="#737373" stroke-opacity="0.5" stroke-width="1.305" stroke-linecap="round" stroke-linejoin="round"/>
<path d="M207.88 169.749C232.489 197.624 212.5 204.316 187.633 204.448C185.83 204.407 184.794 202.576 185.218 200.979C185.25 200.386 185.49 199.847 185.922 199.408C186.236 199.085 186.61 198.878 187.015 198.757C187.091 198.714 196.791 195.948 196.791 195.948L179.292 178.958C178.072 177.774 178.046 175.836 179.232 174.619C180.419 173.402 182.362 173.376 183.581 174.56L193.866 184.545L194.469 183.838L194.42 183.782C193.2 182.599 193.174 180.661 194.36 179.444C195.547 178.227 197.489 178.201 198.709 179.385L198.758 179.44L199.107 179.082L199 178.984C197.78 177.8 197.754 175.862 198.94 174.645C200.127 173.428 202.07 173.402 203.289 174.586L203.396 174.684L203.758 174.314L203.587 174.146C202.368 172.962 202.341 171.025 203.528 169.808C204.715 168.591 206.658 168.565 207.877 169.749L207.88 169.749Z" fill="#FBFFFF" stroke="#737373" stroke-opacity="0.5" stroke-width="1.305" stroke-linecap="round" stroke-linejoin="round"/>
<path d="M157.054 146.823C167.754 111.034 183.671 124.135 197.272 145.372C198.202 146.914 197.202 148.766 195.623 149.261C195.103 149.55 194.518 149.637 193.915 149.506C193.474 149.414 193.098 149.208 192.779 148.932C192.701 148.894 185.179 142.185 185.179 142.185L180.126 166.019C179.774 167.68 178.146 168.737 176.48 168.386C174.816 168.034 173.756 166.41 174.108 164.749L177.078 150.741L176.157 150.609L176.138 150.678C175.786 152.339 174.157 153.396 172.492 153.045C170.828 152.694 169.768 151.069 170.12 149.408L170.139 149.339L169.649 149.237L169.621 149.379C169.269 151.04 167.641 152.097 165.976 151.746C164.311 151.394 163.251 149.77 163.603 148.109L163.632 147.966L163.124 147.859L163.077 148.095C162.725 149.756 161.097 150.813 159.432 150.462C157.767 150.11 156.707 148.486 157.06 146.825L157.054 146.823Z" fill="#FBFFFF" stroke="#737373" stroke-opacity="0.5" stroke-width="1.305" stroke-linecap="round" stroke-linejoin="round"/>
<path d="M222.831 100.318H17.6625C16.7508 100.318 16.0117 101.057 16.0117 101.969V109.91C16.0117 110.822 16.7508 111.561 17.6625 111.561H222.831C223.743 111.561 224.482 110.822 224.482 109.91V101.969C224.482 101.057 223.743 100.318 222.831 100.318Z" fill="#00897B" fill-opacity="0.2"/>
<path d="M109.821 213.112H17.6708C16.6078 213.112 15.7461 213.17 15.7461 213.241V222.984C15.7461 223.055 16.6078 223.112 17.6708 223.112H109.821C110.884 223.112 111.746 223.055 111.746 222.984V213.241C111.746 213.17 110.884 213.112 109.821 213.112Z" fill="#DFF0EE"/>
<path d="M109.821 233.112H17.6708C16.6078 233.112 15.7461 233.17 15.7461 233.241V242.984C15.7461 243.055 16.6078 243.112 17.6708 243.112H109.821C110.884 243.112 111.746 243.055 111.746 242.984V233.241C111.746 233.17 110.884 233.112 109.821 233.112Z" fill="#DFF0EE"/>
<path d="M109.821 253.112H17.6708C16.6078 253.112 15.7461 253.17 15.7461 253.241V262.984C15.7461 263.055 16.6078 263.112 17.6708 263.112H109.821C110.884 263.112 111.746 263.055 111.746 262.984V253.241C111.746 253.17 110.884 253.112 109.821 253.112Z" fill="#DFF0EE"/>
<path d="M109.821 273.112H17.6708C16.6078 273.112 15.7461 273.17 15.7461 273.241V282.984C15.7461 283.055 16.6078 283.112 17.6708 283.112H109.821C110.884 283.112 111.746 283.055 111.746 282.984V273.241C111.746 273.17 110.884 273.112 109.821 273.112Z" fill="#DFF0EE"/>
<path d="M223.821 233.112H131.671C130.608 233.112 129.746 233.17 129.746 233.241V242.984C129.746 243.055 130.608 243.112 131.671 243.112H223.821C224.884 243.112 225.746 243.055 225.746 242.984V233.241C225.746 233.17 224.884 233.112 223.821 233.112Z" fill="#DFF0EE"/>
<path d="M223.821 253.112H131.671C130.608 253.112 129.746 253.17 129.746 253.241V262.984C129.746 263.055 130.608 263.112 131.671 263.112H223.821C224.884 263.112 225.746 263.055 225.746 262.984V253.241C225.746 253.17 224.884 253.112 223.821 253.112Z" fill="#DFF0EE"/>
<path d="M223.821 273.112H131.671C130.608 273.112 129.746 273.17 129.746 273.241V282.984C129.746 283.055 130.608 283.112 131.671 283.112H223.821C224.884 283.112 225.746 283.055 225.746 282.984V273.241C225.746 273.17 224.884 273.112 223.821 273.112Z" fill="#DFF0EE"/>
</g>
</svg>
