<svg width="1248.515" height="770.816" viewBox="0 0 330.336 203.945" xmlns="http://www.w3.org/2000/svg"><g opacity=".459"><ellipse cx="166.686" cy="262.379" transform="rotate(-28.795)" rx="13.333" ry="13.338" fill="#00897b" fill-opacity=".122"/><ellipse cx="126.571" cy="97.33" transform="rotate(32.036)" rx="13.333" ry="13.338" fill="#00897b" fill-opacity=".116"/><ellipse cx="217.429" cy="-69.375" transform="rotate(32.036)" rx="13.333" ry="13.338" fill="#00897b" fill-opacity=".119"/><ellipse cx="67.338" cy="101.052" transform="rotate(-28.795)" rx="13.333" ry="13.338" fill="#00897b" fill-opacity=".12"/><path d="M283.219 181.624c-21.554 30.166-34.001 12.593-41.668-11.877-.438-1.891 1.203-3.46 2.985-3.444a2.581 2.581 0 011.83.316c.42.242.737.577.972.967.066.068 5.536 9.451 5.536 9.451l13.113-22.783a3.306 3.306 0 014.521-1.218 3.306 3.306 0 011.218 4.521l-7.707 13.39.9.441.043-.06a3.306 3.306 0 014.522-1.218 3.306 3.306 0 011.217 4.52l-.044.063.467.268.077-.136a3.306 3.306 0 014.52-1.218 3.306 3.306 0 011.218 4.521l-.077.136.485.28.126-.227a3.306 3.306 0 014.521-1.217c1.694 1.67 1.423 3.007 1.225 4.524z" fill="#fff" stroke="#00897b" stroke-width="3.278" stroke-linecap="round" stroke-linejoin="round" stroke-opacity=".124"/><path d="M296.303 125.03c39.705 5.495 28.114 25.012 7.924 42.594-1.5 1.233-3.634.464-4.413-1.139a2.58 2.58 0 01-.532-1.779c.028-.485.188-.917.432-1.3.033-.09 5.996-9.167 5.996-9.167l-26.24-1.592a3.306 3.306 0 01-3.103-3.506 3.306 3.306 0 013.505-3.104l15.422.937-.01-1.002-.078-.011a3.306 3.306 0 01-3.104-3.506 3.306 3.306 0 013.506-3.103l.079.01.032-.538-.157-.006a3.306 3.306 0 01-3.104-3.505 3.306 3.306 0 013.506-3.104l.157.006.034-.558-.257-.016a3.306 3.306 0 01-3.104-3.505c.743-2.261 2.051-2.61 3.507-3.107zM238.7 142.001c-16.479-36.777 5.731-37.251 31.782-29.447 1.844.608 2.333 2.824 1.394 4.339a2.58 2.58 0 01-1.22 1.4c-.425.234-.876.33-1.33.329-.092.023-10.953-.176-10.953-.176l12.665 23.036a3.306 3.306 0 01-1.306 4.496 3.307 3.307 0 01-4.496-1.306l-7.444-13.539-.844.54.032.071a3.306 3.306 0 01-1.307 4.496 3.306 3.306 0 01-4.496-1.306l-.032-.07-.471.26.077.136a3.306 3.306 0 01-1.307 4.496 3.307 3.307 0 01-4.496-1.306l-.077-.136-.49.269.128.225a3.306 3.306 0 01-1.306 4.497c-2.307.58-3.309-.345-4.503-1.303z" fill="#fff" stroke="#00897b" stroke-width="3.277" stroke-linecap="round" stroke-linejoin="round" stroke-opacity=".124"/><path d="M32.99 174.63c-36.846-4.118-27.568-23.552-9.938-42.173 1.439-1.304 3.608-.636 4.462.928.415.489.629 1.089.617 1.753a2.697 2.697 0 01-.37 1.32c-.028.09-5.555 9.44-5.555 9.44l26.285.346a3.306 3.306 0 013.267 3.354 3.306 3.306 0 01-3.354 3.267l-15.45-.204.055 1 .075.009a3.306 3.306 0 013.266 3.354 3.306 3.306 0 01-3.354 3.267l-.076-.008-.006.538.157.001a3.306 3.306 0 013.267 3.355 3.306 3.306 0 01-3.355 3.266h-.156l-.007.559h.259a3.306 3.306 0 013.266 3.354c-.633 2.293-1.932 2.708-3.354 3.274z" fill="#fff" stroke="#00897b" stroke-width="3.278" stroke-linecap="round" stroke-linejoin="round" stroke-opacity=".124"/><path d="M88.785 158.472c14.552 37.348-8.139 36.74-33.33 27.679-1.809-.708-2.178-2.947-1.158-4.408a2.58 2.58 0 011.294-1.333 2.69 2.69 0 011.347-.256c.093-.015 10.926.768 10.926.768l-11.398-23.688a3.306 3.306 0 011.548-4.419 3.306 3.306 0 014.419 1.548l6.699 13.923.872-.494-.03-.075a3.306 3.306 0 011.548-4.419 3.306 3.306 0 014.42 1.549l.028.074.486-.234-.072-.14a3.306 3.306 0 011.548-4.418 3.306 3.306 0 014.419 1.548l.072.14.503-.242-.111-.233a3.306 3.306 0 011.548-4.419c2.337-.453 3.28.52 4.422 1.549zM45.89 116.445c24.083-32.314 35.321-13.151 41.204 13.4.368 1.906-1.33 3.414-3.11 3.332a2.58 2.58 0 01-1.817-.384 2.696 2.696 0 01-.936-1.001c-.064-.068-5.184-9.649-5.184-9.649L62.105 144.43a3.306 3.306 0 01-4.563 1.05 3.307 3.307 0 01-1.05-4.563l8.194-13.098-.884-.474-.046.062a3.306 3.306 0 01-4.563 1.051 3.306 3.306 0 01-1.05-4.562l.046-.063-.457-.285-.082.134a3.306 3.306 0 01-4.562 1.05 3.307 3.307 0 01-1.051-4.562l.081-.134-.473-.296-.135.221a3.306 3.306 0 01-4.563 1.051c-1.63-1.732-1.312-3.057-1.057-4.567z" fill="#fff" stroke="#00897b" stroke-width="3.277" stroke-linecap="round" stroke-linejoin="round" stroke-opacity=".124"/><path d="M198.441 81.509c-36.845-4.119-27.568-23.552-9.937-42.173 1.438-1.304 3.608-.636 4.462.928.415.489.628 1.088.616 1.752a2.74 2.74 0 01-.37 1.32c-.027.09-5.555 9.44-5.555 9.44l26.285.347a3.306 3.306 0 013.267 3.354 3.306 3.306 0 01-3.354 3.267l-15.449-.204.054 1 .075.009a3.306 3.306 0 013.267 3.354 3.306 3.306 0 01-3.355 3.267l-.075-.008-.01.538.157.001a3.306 3.306 0 013.267 3.355 3.306 3.306 0 01-3.355 3.266h-.156l-.01.558h.259a3.306 3.306 0 013.266 3.355c-.633 2.292-1.932 2.708-3.354 3.274z" fill="#fff" stroke="#00897b" stroke-width="3.278" stroke-linecap="round" stroke-linejoin="round" stroke-opacity=".124"/><path d="M254.236 65.35c14.553 37.349-8.138 36.74-33.33 27.68-1.809-.708-2.177-2.947-1.158-4.409a2.58 2.58 0 011.295-1.332 2.69 2.69 0 011.346-.256c.094-.015 10.926.768 10.926.768l-11.398-23.688a3.306 3.306 0 011.548-4.42 3.306 3.306 0 014.42 1.549l6.698 13.922.872-.493-.03-.075a3.306 3.306 0 011.549-4.419 3.306 3.306 0 014.419 1.548l.029.075.485-.234-.072-.14a3.306 3.306 0 011.548-4.418 3.306 3.306 0 014.42 1.548l.071.14.503-.243-.11-.232a3.306 3.306 0 011.547-4.419c2.337-.453 3.28.519 4.422 1.548zM211.342 23.324c24.082-32.314 35.32-13.151 41.203 13.4.368 1.906-1.33 3.414-3.11 3.331a2.58 2.58 0 01-1.817-.383 2.695 2.695 0 01-.935-1.001c-.065-.068-5.185-9.649-5.185-9.649l-13.942 22.286a3.306 3.306 0 01-4.563 1.051 3.307 3.307 0 01-1.05-4.563l8.194-13.098-.883-.474-.046.062a3.306 3.306 0 01-4.563 1.051 3.306 3.306 0 01-1.05-4.563l.045-.062-.457-.285-.081.134a3.306 3.306 0 01-4.563 1.05 3.307 3.307 0 01-1.05-4.562l.081-.134-.473-.296-.135.221a3.306 3.306 0 01-4.563 1.05c-1.63-1.731-1.311-3.056-1.056-4.566z" fill="#fff" stroke="#00897b" stroke-width="3.277" stroke-linecap="round" stroke-linejoin="round" stroke-opacity=".124"/><path d="M118.448 88.099c-21.554 30.166-34 12.593-41.668-11.877-.437-1.892 1.203-3.46 2.985-3.444a2.581 2.581 0 011.83.316c.421.242.738.577.972.966.067.068 5.536 9.452 5.536 9.452l13.114-22.784a3.306 3.306 0 014.52-1.217 3.306 3.306 0 011.219 4.52l-7.708 13.391.9.441.044-.061a3.306 3.306 0 014.52-1.218 3.306 3.306 0 011.219 4.521l-.045.062.467.268.078-.136a3.306 3.306 0 014.52-1.217 3.306 3.306 0 011.218 4.52l-.077.137.485.28.126-.227a3.306 3.306 0 014.521-1.218c1.693 1.67 1.423 3.007 1.224 4.525z" fill="#fff" stroke="#00897b" stroke-width="3.278" stroke-linecap="round" stroke-linejoin="round" stroke-opacity=".124"/><path d="M131.532 31.504c39.705 5.496 28.114 25.013 7.925 42.594-1.5 1.234-3.635.465-4.413-1.138a2.58 2.58 0 01-.533-1.78 2.69 2.69 0 01.433-1.3c.032-.089 5.996-9.166 5.996-9.166L114.7 59.12a3.306 3.306 0 01-3.104-3.505 3.306 3.306 0 013.506-3.104l15.421.936-.006-1.002-.079-.01a3.306 3.306 0 01-3.104-3.506 3.306 3.306 0 013.506-3.104l.079.01.032-.537-.157-.005a3.306 3.306 0 01-3.104-3.506 3.306 3.306 0 013.506-3.104l.157.005.034-.557-.257-.016a3.306 3.306 0 01-3.104-3.506c.743-2.26 2.051-2.61 3.507-3.106zM73.93 48.476c-16.48-36.778 5.73-37.252 31.782-29.448 1.844.608 2.333 2.825 1.394 4.34a2.58 2.58 0 01-1.22 1.4c-.426.233-.877.33-1.331.328-.091.024-10.952-.175-10.952-.175l12.665 23.036a3.306 3.306 0 01-1.307 4.496 3.307 3.307 0 01-4.496-1.306l-7.443-13.54-.845.54.032.072a3.306 3.306 0 01-1.306 4.496 3.306 3.306 0 01-4.497-1.306l-.031-.071-.472.26.077.137a3.306 3.306 0 01-1.306 4.496 3.307 3.307 0 01-4.497-1.307l-.077-.136-.49.27.128.225a3.306 3.306 0 01-1.306 4.496c-2.307.58-3.308-.344-4.503-1.303z" fill="#fff" stroke="#00897b" stroke-width="3.277" stroke-linecap="round" stroke-linejoin="round" stroke-opacity=".124"/></g></svg>