<svg width="200" height="200" viewBox="0 0 52.917 52.917" xmlns="http://www.w3.org/2000/svg"><g paint-order="stroke fill markers"><circle cx="26.458" cy="26.458" r="1.323" fill="#00897b"/><circle cx="26.458" cy="26.458" r="17.167" fill="none" stroke="#00897b" stroke-width=".794" stroke-linecap="round" stroke-linejoin="round"/><circle cx="26.458" cy="26.458" r="8.379" fill="none" stroke="#00897b" stroke-width=".794" stroke-linecap="round" stroke-linejoin="round"/><path d="M44.887 27.72a17.167 17.167 0 00-17.168 17.167 17.167 17.167 0 001.7 7.446A26.061 26.061 0 0052.332 29.42a17.167 17.167 0 00-7.446-1.7z" fill="none" stroke="#bbd7d7" stroke-width=".7937399999999999" stroke-linecap="round" stroke-linejoin="round"/><path d="M44.887 36.507a8.38 8.38 0 00-8.38 8.38 8.38 8.38 0 001.577 4.884 26.061 26.061 0 0011.689-11.69 8.38 8.38 0 00-4.886-1.574zM8.03 27.72a17.167 17.167 0 00-7.446 1.698 26.061 26.061 0 0022.914 22.915 17.167 17.167 0 001.7-7.446A17.167 17.167 0 008.03 27.719z" fill="none" stroke="#bbd7d7" stroke-width=".7937399999999999" stroke-linecap="round" stroke-linejoin="round"/><path d="M8.03 36.507a8.38 8.38 0 00-4.884 1.577 26.061 26.061 0 0011.686 11.687 8.38 8.38 0 001.577-4.884 8.38 8.38 0 00-8.379-8.38z" fill="none" stroke="#bbd7d7" stroke-width=".7937399999999999" stroke-linecap="round" stroke-linejoin="round"/><circle cx="26.458" cy="26.458" r="26.061" fill="none" stroke="#00897b" stroke-width=".794" stroke-linecap="round" stroke-linejoin="round"/><circle cx="8.03" cy="44.887" r="1.323" fill="#bbd7d7"/><circle cx="44.887" cy="44.887" r="1.323" fill="#bbd7d7"/></g></svg>